<svg width="639" height="40" viewBox="0 0 639 40" fill="none" xmlns="http://www.w3.org/2000/svg">
<g style="mix-blend-mode:overlay">
<path d="M10.9552 1.09818C16.9107 0.71514 24.4507 0.735692 30.345 0.861926C32.1589 0.902049 31.2295 1.23597 32.479 1.27862C35.0211 1.36058 37.1866 1.1719 39.6878 1.28361C40.4692 1.32294 39.5026 1.84043 40.325 1.87013C45.0246 2.02704 49.2936 1.846 54.0138 1.89929C75.6752 2.15325 96.9296 2.19303 118.926 2.25981C120.282 2.26451 121.657 2.26926 123.05 2.27415C130.879 2.2993 140.151 2.70137 148.062 2.45704C148.997 2.428 148.437 1.98894 148.615 1.95149C151.41 1.3779 150.49 2.27577 152.326 2.38422C159.382 2.81355 167.439 2.81204 174.352 2.60671C177.322 2.51795 174.347 1.65447 177.331 2.13261C177.533 2.16492 176.801 2.63814 177.595 2.68429C179.393 2.78799 182.842 2.68722 184.264 2.71759C187.002 2.77849 187.46 2.77159 190.075 2.76458C193.553 2.75957 197.742 2.97365 201.565 2.85003C202.381 2.82225 201.298 2.34574 202.6 2.25797C203.914 2.17026 207.269 2.19619 208.426 2.30462C209.574 2.41312 209.087 2.79361 209.291 2.87945C210.963 3.60408 214.927 2.57322 215.442 2.54598C224.662 2.07946 232.648 2.62472 241.327 2.58958C247.979 2.56145 254.957 2.34504 261.278 2.3488C268.717 2.35547 275.117 2.5947 282.355 2.52649C283.122 2.51984 282.221 1.95675 283.158 1.94749C293.136 1.84959 303.009 1.88184 312.912 2.23668C313.906 2.27277 312.626 2.77322 313.619 2.83899C319.709 3.2305 329.321 4.1871 332.929 2.01488C337.048 2.08932 342.05 2.16503 345.733 2.59303C348.108 2.8685 345.804 3.41491 348.719 3.17755C349.376 3.12467 348.52 2.65242 349.506 2.60896C353.665 2.42644 358.21 2.57127 362.313 2.31842C363.148 2.26588 362.919 1.84151 363.156 1.76456C365.135 1.14123 368.468 2.15922 369.189 2.23235C374.709 2.77738 378.677 2.55243 383.836 2.55806C385.028 2.55963 383.619 1.99115 384.765 1.97218C390.708 1.88143 396.84 1.92233 402.668 2.16889C403.96 2.22512 402.773 2.71252 403.39 2.76427C406.11 2.98654 406.711 2.06787 409.309 2.2636C409.857 2.3037 409.549 2.72011 409.649 2.76571C411.233 3.48151 412.604 2.46379 413.01 2.44098C418.155 2.12973 421.365 3.18844 426.335 3.03513C426.929 3.01574 425.588 2.49003 427.26 2.4677C438.35 2.31593 449.972 2.4587 461.017 2.88396C462.715 2.94937 461.503 3.34441 461.61 3.39321C463.349 4.1557 464.469 3.13553 465.018 3.09736C469.414 2.82282 473.549 3.68195 476.495 2.46885C495.057 2.90775 513.493 2.25881 531.974 3.41727C532.21 3.43078 531.785 3.93189 532.256 3.95667C537.907 4.26099 536.722 3.47522 540.492 2.53604C541.458 2.3003 544.327 3.46749 544.573 3.55334C545.49 3.86943 544.534 4.61268 544.841 4.67452C547.186 5.12536 547.019 3.03164 549.649 2.73654C549.869 2.71334 550.107 2.70135 550.365 2.7027C550.476 2.70742 550.009 3.16014 550.305 3.20701C551.227 3.35413 552.134 3.1783 553.019 3.34009C555.037 3.71445 555.756 4.92035 558.746 4.23999C559.136 4.15185 558.505 2.74425 561.657 2.83185C562.963 2.86789 568.183 2.8825 569.792 2.9871C571.341 3.0906 570.273 3.53398 570.384 3.55446C574.512 4.187 572.935 4.42169 574.952 5.32471C576.948 6.22479 576.378 4.1165 577.231 3.88978C578.112 3.66382 581.138 4.18752 581.853 4.36683C582.578 4.54608 581.669 4.82373 582.313 4.92766C586.535 5.60804 584.169 3.90405 585.623 3.58656C589.143 2.83699 591.487 4.4268 594.725 4.62573C595.564 4.67911 594.886 4.31402 595.629 4.29165C598.476 4.20705 600.393 4.72394 603.659 4.33676C604.115 4.27196 607.013 3.38896 608.687 4.11369C608.926 4.2181 608.236 4.59185 609.449 4.70523C611.362 4.87697 614.596 5.04053 616.735 4.97261C618.234 4.91999 616.557 4.22971 618.399 4.48387C619.202 4.5975 617.705 4.92586 619.202 5.10823C620.812 5.29145 624.777 5.42237 626.256 5.48239C626.952 5.50802 627.181 5.39499 627.176 5.2673C627.18 5.14012 626.997 5.00144 627.063 4.98829C627.913 4.83713 630.722 4.76514 631.04 4.79254C631.419 4.81635 631.781 4.8412 632.125 4.86703C632.497 4.89486 632.936 4.93087 633.304 4.96455C633.694 5.00032 633.986 5.02956 634.401 5.07542C634.824 5.12241 635.208 5.17104 635.555 5.2217C635.646 5.23499 635.712 5.24512 635.821 5.26196C635.936 5.27972 636.047 5.29774 636.153 5.31606C636.366 5.35273 636.563 5.39057 636.746 5.43046C636.892 5.46237 637.19 5.53062 637.436 5.61028C637.561 5.65053 637.682 5.69463 637.807 5.74991C637.847 5.76813 637.987 5.82785 638.142 5.92594C638.294 6.02453 638.475 6.15313 638.662 6.41033C638.842 6.66279 639.023 7.08062 638.939 7.59766C638.853 8.08445 638.601 8.36978 638.424 8.53755C638.241 8.70768 638.061 8.80441 638.022 8.82664C637.952 8.86588 637.884 8.89943 637.817 8.93003C637.683 8.99098 637.552 9.04065 637.415 9.087C637.266 9.13736 637.165 9.16587 637.077 9.19014C636.734 9.28647 636.192 9.40188 635.9 9.45347C632.908 9.9746 630.005 10.1957 627.161 10.439C621.421 10.9024 615.742 11.2542 609.935 11.8137C609.087 11.8952 608.223 11.9822 607.341 12.0755C606.349 12.1796 607.054 12.6344 606.903 12.6555C603.542 13.1516 606.097 11.572 603.713 11.3122C604.154 12.3186 602.686 12.2519 600.369 12.5543C599.236 12.702 599.887 13.0531 599.787 13.1026C598.138 13.8492 596.873 13.1577 596.571 13.0197C595.416 12.5157 594.244 13.3126 593.437 12.9775C592.638 12.6448 594.347 11.9246 592.081 12.1097C591.479 12.53 593.226 13.369 591.528 13.6597C585.068 14.7665 572.814 14.9094 567.571 15.202C562.352 15.4962 560.664 15.682 557.594 15.7615C552.084 15.8996 554.139 16.4803 550.74 17.044C547.344 17.606 548.884 15.7217 548.367 15.3744C547.857 15.0266 547.354 15.4541 546.736 15.2856C546.119 15.117 547.406 14.7703 545.984 14.7872C544.57 14.8038 540.759 15.7374 540.278 16.1688C539.271 17.0823 541.073 17.8533 537.321 17.7873C537.105 17.7829 537.772 17.2715 536.946 17.2783C530.386 17.3475 523.587 17.7569 517.041 17.8409C516.139 17.8518 516.911 17.2841 516.386 17.2845C510.928 17.2853 512.923 18.0403 509.998 19.1912C510.59 17.8586 508.894 17.1688 504.764 17.405C502.28 17.5461 502.741 18.0851 501.158 18.5765C500.683 18.7246 498.905 18.4386 498.601 18.7223C497.601 19.6501 499.311 20.5275 495.028 20.3836C494.84 20.3759 495.408 19.8671 494.761 19.875C490.578 19.9224 490.127 20.8583 485.618 21.2156C482.081 21.4961 475.772 21.2752 471.725 21.3897C471.738 19.9322 467.949 20.4574 466.452 21.5352C463.854 21.6223 460.997 21.8165 458.487 21.795C457.613 21.7884 458.166 21.3408 458.054 21.3005C456.326 20.6661 455.237 21.6928 454.676 21.7566C448.559 22.4062 443.583 21.8763 437.746 22.8248C437.616 22.8464 437.449 23.269 436.939 23.3978C436.641 23.4716 436.228 23.4499 435.647 23.2032C435.544 23.1561 437.468 22.6243 434.702 22.6915C431.983 22.7572 426.749 22.3954 422.959 22.9798C422.069 23.1204 419.692 24.0132 417.84 23.4241C417.59 23.3441 417.857 23.0465 417.489 22.8955C416.292 22.4151 415.678 23.4542 414.295 22.6231C412.92 21.7916 410.07 21.217 406.202 21.9061C406.071 21.9266 405.228 22.7564 403.983 22.7714C402.042 22.7939 399.28 22.6833 397.296 22.7278C396.331 22.7498 396.957 23.2403 396.79 23.2529C390.256 23.6634 385.697 23.2864 378.699 23.217C377.402 23.2038 373.805 23.956 371.304 23.4787C368.53 22.9737 371.312 20.3661 365.001 21.2348C364.123 21.3715 363.161 21.8447 362.06 22.4763C361.993 22.5164 361.936 22.5556 361.867 22.5982C361.776 22.6451 361.689 22.6931 361.607 22.7431C361.525 22.7931 361.446 22.8448 361.37 22.9005C361.305 22.9526 361.111 23.0499 360.954 23.1986C360.912 23.2378 360.868 23.2829 360.823 23.3382C360.8 23.366 360.778 23.3962 360.755 23.4298C360.721 23.4779 360.674 23.5533 360.64 23.6329C360.473 23.9681 360.617 24.4537 360.785 24.6125C360.995 24.823 361.105 24.8326 361.245 24.8853C361.397 24.9352 361.464 24.9308 361.55 24.9376C361.634 24.9425 361.721 24.9464 361.813 24.9505C362.023 24.9662 362.143 24.9486 362.306 24.9455C362.462 24.9401 362.642 24.9403 362.818 24.9406C363.106 24.9259 363.429 24.9273 363.798 24.9513C364.91 24.9955 366.225 25.2697 367.48 25.9769C376.244 26.9273 384.143 28.7098 392.954 29.2097C393.356 29.2326 394.698 28.5139 395.615 28.6355C396.985 28.8188 397.692 29.3142 398.661 29.4561C402.745 30.0634 406.546 30.153 410.486 30.66C411.987 30.852 411.41 31.2112 413.198 31.4393C414.989 31.6668 416.239 31.2492 418.635 31.7903C420.443 32.2005 422.151 33.5369 424.564 33.94C424.777 32.8353 426.452 33.0461 429.451 33.0812C430.029 33.0876 429.459 32.6316 429.734 32.6146C430.86 32.5371 431.822 32.9691 432.902 32.868C433.162 32.8439 433.216 32.4645 433.431 32.4232C435.247 32.0564 438.075 33.2339 438.544 33.4362C440.412 34.2142 441.332 33.8136 442.79 34.1986C444.237 34.5822 442.009 34.6212 443.709 34.9436C447.226 35.6106 451.792 36.0433 455.394 36.4495C456.82 36.608 455.901 35.9947 456.107 36.0056C456.317 36.0189 456.525 36.0355 456.732 36.0546C459.515 36.3126 462.176 37.0021 463.788 36.2235C465.59 39.0644 465.627 36.1643 469.795 37.1372C470.14 37.2167 470.407 38.4973 469.128 38.5454C467.802 38.5883 465.923 37.9967 464.098 38.0879C463.678 38.1103 461.1 39.0075 460.794 39.0457C458.126 39.3146 457.998 37.4289 457.863 37.3116C457.537 37.0244 457.121 36.85 456.656 36.7514C455.168 36.4258 453.141 36.9771 452.551 36.9808C448.952 36.9919 445.927 36.3999 442.94 36.3597C440.945 36.3265 440.661 37.5217 439.121 37.3154C434.049 36.6348 432.464 34.7491 427.508 35.6819C426.448 35.8801 427.321 37.3185 423.755 35.8659C423.533 35.7747 420.903 34.5157 419.258 34.9401C419.052 34.9937 419.014 35.3802 418.749 35.3831C416.972 35.3948 415.838 34.9551 413.913 34.8851C411.985 34.8148 409.661 34.7711 407.501 34.3891C406.196 34.1593 404.589 33.2444 403.987 32.9959C402.258 32.2809 400.282 32.891 399.238 32.1455C398.203 31.3978 400.474 30.7172 397.625 29.9757C397.399 30.9646 397.035 31.9641 396.739 32.9504C390.348 32.153 384.131 31.0661 377.716 30.2651C376.921 30.1664 377.659 30.8113 376.811 30.7198C373.203 30.322 370.14 29.5165 366.326 29.0563C365.305 28.9323 364.14 28.8352 363.026 28.7285C362.411 28.6553 361.953 28.6176 361.245 28.4828C360.978 28.4344 360.494 28.337 359.883 28.0857C359.622 27.9675 359.32 27.8275 358.891 27.5063C358.784 27.4246 358.668 27.3296 358.544 27.2137C358.482 27.1558 358.418 27.0926 358.352 27.023C358.28 26.9439 358.245 26.9161 358.072 26.6964C357.498 26.0468 356.829 24.2894 357.353 22.7611C357.464 22.3968 357.616 22.073 357.78 21.7997C357.941 21.5272 358.136 21.2859 358.201 21.2098C358.389 20.9873 358.57 20.8145 358.737 20.6729C359.072 20.3916 359.347 20.229 359.578 20.1041C359.81 19.9811 360.001 19.8998 360.17 19.8336C360.305 19.7811 360.361 19.7601 360.449 19.7289C360.771 19.6157 361.036 19.545 361.291 19.483C361.465 19.4369 361.636 19.3964 361.809 19.3588C362.185 19.2802 362.445 19.2292 362.733 19.1787C363.371 19.074 363.795 19.0096 364.378 18.9484C366.381 19.9658 370.905 19.4456 374.167 19.4856C375.307 19.4981 375.29 19.8071 376.068 19.8923C379.147 20.2055 377.71 19.2131 378.529 19.0372C382.169 18.2865 382.452 20.5921 386.741 20.4605C386.941 20.4549 389.678 19.1759 390.071 19.092C392.434 18.5495 390.464 19.5135 391.967 19.577C394.743 19.692 396.646 19.9497 399.864 19.5226C400.848 19.3955 403.01 18.5821 404.893 19.1325C405.131 19.2048 405.01 19.6145 405.201 19.634C408.683 19.9505 408.787 18.668 410.75 18.1861C412.766 17.7028 415.836 18.5019 416.492 18.7376C418.174 19.3487 415.227 19.0542 415.147 19.1205C414.118 19.917 416.382 19.7238 418.106 19.739C418.383 20.9852 420.788 20.8393 419.883 19.7497C419.778 19.6309 418.447 19.7866 418.106 19.739C419.556 18.4675 422.23 18.2313 425.171 19.2865C426.558 19.78 425.314 20.4513 429.433 20.0826C431.319 19.9139 430.576 19.0762 432.225 18.7825C433.593 18.5371 435.136 18.464 436.752 18.4543C439.472 18.4406 442.421 18.6165 444.883 18.4333C446.308 18.3276 444.897 17.9139 445.872 17.8252C448.461 17.5877 450.73 17.8433 453.324 17.5449C453.557 17.5173 452.964 17.0491 453.765 17.0067C459.888 16.6716 465.192 16.7325 471.579 16.4169C474.665 16.2647 480.164 15.7027 483.349 15.5845C488.891 15.378 495.731 15.7123 500.449 15.2627C503.524 14.9717 502.82 14.517 504.121 14.1031C506.63 13.3017 511.208 14.1988 511.828 14.3424C511.847 14.3474 509.201 14.6236 510.632 14.7918C511.487 15.2702 511.798 14.3465 511.828 14.3424C512.235 14.4358 517.536 14.2245 518.585 14.0641C519.153 13.9772 518.804 13.5293 519.101 13.4928C526.158 12.6353 533.243 12.0621 540.436 11.8056C540.563 11.8067 540.407 12.3423 540.706 12.3382C544.88 12.295 547.513 11.4746 550.895 10.8624C554.321 10.247 557.015 10.1874 559.124 10.9419C561.684 10.6495 565.456 10.7805 567.58 10.8697C569.752 10.9556 569.969 9.91654 570.156 9.88281C575.962 8.81398 579.39 9.14595 585.477 8.77411C588.325 8.60307 594.117 8.00344 597.182 7.6447C599.694 7.35318 601.128 7.47648 603.432 7.13318C603.737 7.08744 603.389 6.66035 603.482 6.63517C605.955 5.88485 604.832 7.09206 605.367 7.24672C606.832 7.65923 607.891 7.92027 609.59 7.784C610.223 7.73304 610.938 7.6321 611.775 7.47055C612.493 7.33053 614.576 5.54251 615.905 5.32823C617.615 5.05402 617.073 5.67954 618.895 5.37097C619.05 5.34495 618.989 4.99621 620.104 4.90614C622.808 4.68247 625.54 4.47902 628.281 4.21929C629.715 4.08144 631.098 3.93357 632.357 3.76563C633.114 3.66172 633.601 3.59098 634.292 3.46519C634.607 3.40645 634.799 3.36835 635.086 3.30009C635.204 3.27143 635.292 3.24705 635.337 3.23294C635.378 3.22264 635.41 3.19703 635.181 3.29864C635.119 3.32721 635.047 3.36118 634.973 3.39765C634.881 3.44559 634.881 3.43293 634.676 3.5588C634.348 3.75792 634.011 4.04731 633.817 4.23144C633.408 4.63915 633.53 4.38563 633.545 4.24985C633.55 4.18787 633.527 4.15537 633.38 4.2891C633.244 4.44371 632.914 4.68042 632.502 5.76392C632.311 6.30252 632.133 7.14756 632.277 8.13918C632.391 9.00087 632.799 9.91742 633.287 10.5357C634.294 11.7929 635.194 12.0076 635.206 12.0418C635.66 12.2088 635.409 12.1151 635.277 12.1036C635.119 12.0763 634.777 12.0275 634.572 12.0036C634.09 11.9438 633.387 11.8744 632.839 11.827C631.511 11.7119 630.327 11.6298 628.978 11.5361C626.397 11.3574 623.635 11.1756 621.283 10.9612C620.044 10.8517 620.835 10.4863 620.568 10.3604C618.836 9.59499 616.668 10.5582 616.217 10.5654C606.982 10.8078 600.071 9.77291 590.682 10.0876C590.211 10.1069 586.266 11.157 584.465 10.1949C584.352 10.1309 582.691 9.14803 581.154 9.79143C581.057 9.8317 582.134 10.3392 580.249 10.2692C578.32 10.1989 575.311 10.5017 572.753 9.93428C571.958 9.75556 569.922 8.77625 567.506 9.52433C567.362 9.57651 563.633 11.2823 562.26 10.0769C562.035 9.87853 562.296 8.61399 559.29 9.24313C558.749 9.36544 559.73 9.65412 558.302 9.82122C556.111 10.0789 553.141 9.72203 550.287 10.2705C550.158 10.2957 549.92 10.3714 549.607 10.4582C548.769 10.7062 547.356 11.0448 546.149 10.5558C545.893 10.4524 546.382 10.0322 545.518 9.98063C541.364 9.73323 537.025 9.99712 532.84 9.68867C531.342 9.58022 532.113 8.89993 530.542 8.71103C528.924 8.522 525.875 8.33545 524.255 8.64249C522.636 8.94965 524.405 10.044 521.971 10.1236C511.332 10.4693 500.953 9.80884 490.314 9.69999C488.762 9.68384 490.052 10.0752 487.757 10.0795C479.176 10.0961 464.523 10.4514 457.152 9.62249C451.197 8.95817 458.696 8.45483 454.14 8.18414C451.91 8.05506 449.613 9.32087 449.078 9.36073C443.974 9.76557 440.297 9.2056 435.714 9.37924C434.763 9.41529 435.697 9.92801 434.886 9.95303C432.118 10.0431 429.192 9.8155 426.518 9.85898C425.319 9.87967 425.54 10.2714 424.434 10.2419C421.82 10.1757 419.514 10.0127 416.954 9.6475C416.72 9.61423 418.293 9.12547 416.35 9.10894C413.209 9.08359 409.267 8.725 405.681 9.10304C404.61 9.21676 404.571 10.1124 402.264 9.49649C401.78 9.36788 402.398 8.2917 399.707 9.2241C399.261 9.37901 394.711 10.638 392.519 9.83314C391.937 9.6213 390.448 8.74332 389.159 8.88346C388.984 8.90578 389.685 9.38583 388.617 9.43428C384.858 9.59665 380.866 9.55149 377.02 9.70854C375.988 9.75144 377.526 10.2467 375.988 10.2947C371.764 10.4276 366.441 10.3105 362.313 10.1627C360.787 10.1072 361.841 9.69281 361.729 9.64815C359.943 8.92172 358.888 9.90903 358.295 9.96766C354.608 10.319 351.786 9.86216 348.389 9.99198C347.451 10.0266 348.117 10.4949 347.93 10.5372C345.995 10.9507 347.436 10.1039 346.209 10.0136C342.775 9.75787 338.943 9.80444 335.467 9.87277C334.19 9.89857 335.626 10.4398 334.48 10.4567C327.697 10.5668 320.66 10.5329 314.032 10.2507C312.786 10.1966 313.569 9.77501 313.309 9.67993C311.517 9.0146 308.898 9.93615 308.296 10.0249C305.557 10.4303 304.492 10.0625 302.062 10.1388C290.221 10.5179 275.621 10.3193 264.426 10.2069C249.845 10.0628 238.58 9.70676 224.665 9.86744C223.782 9.87714 224.675 10.4314 223.914 10.447C214.153 10.6218 204.452 10.4461 194.579 10.653C193.776 10.669 194.936 11.1925 193.647 11.236C191.031 11.3286 187.621 11.3159 184.921 11.1601C183.606 11.085 185.367 10.6226 184.044 10.5564C180.941 10.4012 177.785 10.379 174.536 10.4801C173.18 10.5242 175.228 11.0549 173.467 11.07C161.699 11.183 149.814 11.3403 137.868 10.7102C137.035 10.667 136.295 9.57188 134.546 9.79322C134.416 10.0991 134.426 10.458 134.37 10.7845C129.349 10.8671 123.94 10.9037 118.982 10.9128C106.84 10.9373 94.7783 10.824 82.6321 10.8848C81.8774 10.8888 83.1843 11.4603 81.7271 11.471C73.5748 11.5317 65.5204 11.768 57.1558 11.2801C56.3213 11.2327 56.7922 10.2023 54.3138 10.3852C53.8411 10.4186 50.1744 10.598 49.2594 10.832C49.1263 10.8672 49.8268 11.337 48.5985 11.366C41.7071 11.5234 34.3824 11.5164 27.5622 11.3514C26.4672 11.3239 27.6487 10.792 26.8312 10.7689C21.1461 10.6095 15.1281 11.1254 9.78304 10.8902C6.22027 10.7487 7.50692 9.80501 5.57017 9.06225C5.28726 8.94978 3.15764 9.13322 2.98505 8.66265C2.51821 7.4422 3.45058 5.92961 2.8444 4.641C2.6711 4.33939 -0.39391 5.16013 1.32017 4.16611C1.43242 4.07974 3.80714 3.55076 4.33536 3.28616C4.71948 3.0891 3.94493 2.63684 4.76601 2.3595C5.51585 2.09022 6.48165 2.4581 7.71393 2.14608C9.00415 1.83187 8.42945 1.26869 10.9552 1.09818ZM577.277 11.2443C579.283 11.5867 579.449 9.77485 577.341 10.3619C577.241 10.3923 577.174 11.2278 577.277 11.2443ZM384.339 29.7085C381.844 28.5963 379.94 29.522 381.694 30.3642C383.398 31.1981 385.116 30.0478 384.339 29.7085ZM411.123 32.3189C408.179 31.3528 407.411 33.8259 410.703 33.6862C410.894 33.6788 411.294 32.375 411.123 32.3189ZM14.3417 8.41608C14.3275 8.4046 13.9271 8.40532 13.543 8.4121C13.1081 8.42048 12.6971 8.43482 12.6784 8.44729C12.2657 8.74691 12.8421 8.88042 13.486 8.86796C14.0715 8.85732 14.6864 8.70183 14.3417 8.41608ZM437.716 34.6628C436.819 34.2181 434.057 34.3135 435.178 34.8677C436.094 35.3152 438.836 35.2165 437.716 34.6628ZM594.797 5.50282C594.768 5.4756 593.601 5.435 593.62 5.5865C593.697 6.07438 595.316 5.96009 594.797 5.50282ZM482.814 39.4405C476.152 38.6876 472.324 36.1584 479.558 37.147C480.871 37.3243 476.672 37.5255 478.306 37.8834C481.33 38.5238 483.553 37.4912 486.485 38.3482C487.105 38.5536 483.187 39.5039 482.802 39.4423C482.806 39.4417 482.81 39.4411 482.814 39.4405ZM578.572 13.3096C578.616 13.3303 580.215 13.2335 580.25 13.2072C581.073 12.5746 577.852 12.7691 578.572 13.3096ZM527.665 3.89241C527.586 3.84146 523.94 3.78202 523.813 3.82831C521.907 4.75364 529.284 4.87651 527.665 3.89241ZM471.659 21.3542C469.964 22.0144 467.876 22.1863 466.46 21.5355C468.185 21.4887 469.934 21.4066 471.659 21.3542Z" fill="white"/>
</g>
<g style="mix-blend-mode:overlay">
<path d="M10.9552 1.09818C16.9107 0.71514 24.4507 0.735692 30.345 0.861926C32.1589 0.902049 31.2295 1.23597 32.479 1.27862C35.0211 1.36058 37.1866 1.1719 39.6878 1.28361C40.4692 1.32294 39.5026 1.84043 40.325 1.87013C45.0246 2.02704 49.2936 1.846 54.0138 1.89929C75.6752 2.15325 96.9296 2.19303 118.926 2.25981C120.282 2.26451 121.657 2.26926 123.05 2.27415C130.879 2.2993 140.151 2.70137 148.062 2.45704C148.997 2.428 148.437 1.98894 148.615 1.95149C151.41 1.3779 150.49 2.27577 152.326 2.38422C159.382 2.81355 167.439 2.81204 174.352 2.60671C177.322 2.51795 174.347 1.65447 177.331 2.13261C177.533 2.16492 176.801 2.63814 177.595 2.68429C179.393 2.78799 182.842 2.68722 184.264 2.71759C187.002 2.77849 187.46 2.77159 190.075 2.76458C193.553 2.75957 197.742 2.97365 201.565 2.85003C202.381 2.82225 201.298 2.34574 202.6 2.25797C203.914 2.17026 207.269 2.19619 208.426 2.30462C209.574 2.41312 209.087 2.79361 209.291 2.87945C210.963 3.60408 214.927 2.57322 215.442 2.54598C224.662 2.07946 232.648 2.62472 241.327 2.58958C247.979 2.56145 254.957 2.34504 261.278 2.3488C268.717 2.35547 275.117 2.5947 282.355 2.52649C283.122 2.51984 282.221 1.95675 283.158 1.94749C293.136 1.84959 303.009 1.88184 312.912 2.23668C313.906 2.27277 312.626 2.77322 313.619 2.83899C319.709 3.2305 329.321 4.1871 332.929 2.01488C337.048 2.08932 342.05 2.16503 345.733 2.59303C348.108 2.8685 345.804 3.41491 348.719 3.17755C349.376 3.12467 348.52 2.65242 349.506 2.60896C353.665 2.42644 358.21 2.57127 362.313 2.31842C363.148 2.26588 362.919 1.84151 363.156 1.76456C365.135 1.14123 368.468 2.15922 369.189 2.23235C374.709 2.77738 378.677 2.55243 383.836 2.55806C385.028 2.55963 383.619 1.99115 384.765 1.97218C390.708 1.88143 396.84 1.92233 402.668 2.16889C403.96 2.22512 402.773 2.71252 403.39 2.76427C406.11 2.98654 406.711 2.06787 409.309 2.2636C409.857 2.3037 409.549 2.72011 409.649 2.76571C411.233 3.48151 412.604 2.46379 413.01 2.44098C418.155 2.12973 421.365 3.18844 426.335 3.03513C426.929 3.01574 425.588 2.49003 427.26 2.4677C438.35 2.31593 449.972 2.4587 461.017 2.88396C462.715 2.94937 461.503 3.34441 461.61 3.39321C463.349 4.1557 464.469 3.13553 465.018 3.09736C469.414 2.82282 473.549 3.68195 476.495 2.46885C495.057 2.90775 513.493 2.25881 531.974 3.41727C532.21 3.43078 531.785 3.93189 532.256 3.95667C537.907 4.26099 536.722 3.47522 540.492 2.53604C541.458 2.3003 544.327 3.46749 544.573 3.55334C545.49 3.86943 544.534 4.61268 544.841 4.67452C547.186 5.12536 547.019 3.03164 549.649 2.73654C549.869 2.71334 550.107 2.70135 550.365 2.7027C550.476 2.70742 550.009 3.16014 550.305 3.20701C551.227 3.35413 552.134 3.1783 553.019 3.34009C555.037 3.71445 555.756 4.92035 558.746 4.23999C559.136 4.15185 558.505 2.74425 561.657 2.83185C562.963 2.86789 568.183 2.8825 569.792 2.9871C571.341 3.0906 570.273 3.53398 570.384 3.55446C574.512 4.187 572.935 4.42169 574.952 5.32471C576.948 6.22479 576.378 4.1165 577.231 3.88978C578.112 3.66382 581.138 4.18752 581.853 4.36683C582.578 4.54608 581.669 4.82373 582.313 4.92766C586.535 5.60804 584.169 3.90405 585.623 3.58656C589.143 2.83699 591.487 4.4268 594.725 4.62573C595.564 4.67911 594.886 4.31402 595.629 4.29165C598.476 4.20705 600.393 4.72394 603.659 4.33676C604.115 4.27196 607.013 3.38896 608.687 4.11369C608.926 4.2181 608.236 4.59185 609.449 4.70523C611.362 4.87697 614.596 5.04053 616.735 4.97261C618.234 4.91999 616.557 4.22971 618.399 4.48387C619.202 4.5975 617.705 4.92586 619.202 5.10823C620.812 5.29145 624.777 5.42237 626.256 5.48239C626.952 5.50802 627.181 5.39499 627.176 5.2673C627.18 5.14012 626.997 5.00144 627.063 4.98829C627.913 4.83713 630.722 4.76514 631.04 4.79254C631.419 4.81635 631.781 4.8412 632.125 4.86703C632.497 4.89486 632.936 4.93087 633.304 4.96455C633.694 5.00032 633.986 5.02956 634.401 5.07542C634.824 5.12241 635.208 5.17104 635.555 5.2217C635.646 5.23499 635.712 5.24512 635.821 5.26196C635.936 5.27972 636.047 5.29774 636.153 5.31606C636.366 5.35273 636.563 5.39057 636.746 5.43046C636.892 5.46237 637.19 5.53062 637.436 5.61028C637.561 5.65053 637.682 5.69463 637.807 5.74991C637.847 5.76813 637.987 5.82785 638.142 5.92594C638.294 6.02453 638.475 6.15313 638.662 6.41033C638.842 6.66279 639.023 7.08062 638.939 7.59766C638.853 8.08445 638.601 8.36978 638.424 8.53755C638.241 8.70768 638.061 8.80441 638.022 8.82664C637.952 8.86588 637.884 8.89943 637.817 8.93003C637.683 8.99098 637.552 9.04065 637.415 9.087C637.266 9.13736 637.165 9.16587 637.077 9.19014C636.734 9.28647 636.192 9.40188 635.9 9.45347C632.908 9.9746 630.005 10.1957 627.161 10.439C621.421 10.9024 615.742 11.2542 609.935 11.8137C609.087 11.8952 608.223 11.9822 607.341 12.0755C606.349 12.1796 607.054 12.6344 606.903 12.6555C603.542 13.1516 606.097 11.572 603.713 11.3122C604.154 12.3186 602.686 12.2519 600.369 12.5543C599.236 12.702 599.887 13.0531 599.787 13.1026C598.138 13.8492 596.873 13.1577 596.571 13.0197C595.416 12.5157 594.244 13.3126 593.437 12.9775C592.638 12.6448 594.347 11.9246 592.081 12.1097C591.479 12.53 593.226 13.369 591.528 13.6597C585.068 14.7665 572.814 14.9094 567.571 15.202C562.352 15.4962 560.664 15.682 557.594 15.7615C552.084 15.8996 554.139 16.4803 550.74 17.044C547.344 17.606 548.884 15.7217 548.367 15.3744C547.857 15.0266 547.354 15.4541 546.736 15.2856C546.119 15.117 547.406 14.7703 545.984 14.7872C544.57 14.8038 540.759 15.7374 540.278 16.1688C539.271 17.0823 541.073 17.8533 537.321 17.7873C537.105 17.7829 537.772 17.2715 536.946 17.2783C530.386 17.3475 523.587 17.7569 517.041 17.8409C516.139 17.8518 516.911 17.2841 516.386 17.2845C510.928 17.2853 512.923 18.0403 509.998 19.1912C510.59 17.8586 508.894 17.1688 504.764 17.405C502.28 17.5461 502.741 18.0851 501.158 18.5765C500.683 18.7246 498.905 18.4386 498.601 18.7223C497.601 19.6501 499.311 20.5275 495.028 20.3836C494.84 20.3759 495.408 19.8671 494.761 19.875C490.578 19.9224 490.127 20.8583 485.618 21.2156C482.081 21.4961 475.772 21.2752 471.725 21.3897C471.738 19.9322 467.949 20.4574 466.452 21.5352C463.854 21.6223 460.997 21.8165 458.487 21.795C457.613 21.7884 458.166 21.3408 458.054 21.3005C456.326 20.6661 455.237 21.6928 454.676 21.7566C448.559 22.4062 443.583 21.8763 437.746 22.8248C437.616 22.8464 437.449 23.269 436.939 23.3978C436.641 23.4716 436.228 23.4499 435.647 23.2032C435.544 23.1561 437.468 22.6243 434.702 22.6915C431.983 22.7572 426.749 22.3954 422.959 22.9798C422.069 23.1204 419.692 24.0132 417.84 23.4241C417.59 23.3441 417.857 23.0465 417.489 22.8955C416.292 22.4151 415.678 23.4542 414.295 22.6231C412.92 21.7916 410.07 21.217 406.202 21.9061C406.071 21.9266 405.228 22.7564 403.983 22.7714C402.042 22.7939 399.28 22.6833 397.296 22.7278C396.331 22.7498 396.957 23.2403 396.79 23.2529C390.256 23.6634 385.697 23.2864 378.699 23.217C377.402 23.2038 373.805 23.956 371.304 23.4787C368.53 22.9737 371.312 20.3661 365.001 21.2348C364.123 21.3715 363.161 21.8447 362.06 22.4763C361.993 22.5164 361.936 22.5556 361.867 22.5982C361.776 22.6451 361.689 22.6931 361.607 22.7431C361.525 22.7931 361.446 22.8448 361.37 22.9005C361.305 22.9526 361.111 23.0499 360.954 23.1986C360.912 23.2378 360.868 23.2829 360.823 23.3382C360.8 23.366 360.778 23.3962 360.755 23.4298C360.721 23.4779 360.674 23.5533 360.64 23.6329C360.473 23.9681 360.617 24.4537 360.785 24.6125C360.995 24.823 361.105 24.8326 361.245 24.8853C361.397 24.9352 361.464 24.9308 361.55 24.9376C361.634 24.9425 361.721 24.9464 361.813 24.9505C362.023 24.9662 362.143 24.9486 362.306 24.9455C362.462 24.9401 362.642 24.9403 362.818 24.9406C363.106 24.9259 363.429 24.9273 363.798 24.9513C364.91 24.9955 366.225 25.2697 367.48 25.9769C376.244 26.9273 384.143 28.7098 392.954 29.2097C393.356 29.2326 394.698 28.5139 395.615 28.6355C396.985 28.8188 397.692 29.3142 398.661 29.4561C402.745 30.0634 406.546 30.153 410.486 30.66C411.987 30.852 411.41 31.2112 413.198 31.4393C414.989 31.6668 416.239 31.2492 418.635 31.7903C420.443 32.2005 422.151 33.5369 424.564 33.94C424.777 32.8353 426.452 33.0461 429.451 33.0812C430.029 33.0876 429.459 32.6316 429.734 32.6146C430.86 32.5371 431.822 32.9691 432.902 32.868C433.162 32.8439 433.216 32.4645 433.431 32.4232C435.247 32.0564 438.075 33.2339 438.544 33.4362C440.412 34.2142 441.332 33.8136 442.79 34.1986C444.237 34.5822 442.009 34.6212 443.709 34.9436C447.226 35.6106 451.792 36.0433 455.394 36.4495C456.82 36.608 455.901 35.9947 456.107 36.0056C456.317 36.0189 456.525 36.0355 456.732 36.0546C459.515 36.3126 462.176 37.0021 463.788 36.2235C465.59 39.0644 465.627 36.1643 469.795 37.1372C470.14 37.2167 470.407 38.4973 469.128 38.5454C467.802 38.5883 465.923 37.9967 464.098 38.0879C463.678 38.1103 461.1 39.0075 460.794 39.0457C458.126 39.3146 457.998 37.4289 457.863 37.3116C457.537 37.0244 457.121 36.85 456.656 36.7514C455.168 36.4258 453.141 36.9771 452.551 36.9808C448.952 36.9919 445.927 36.3999 442.94 36.3597C440.945 36.3265 440.661 37.5217 439.121 37.3154C434.049 36.6348 432.464 34.7491 427.508 35.6819C426.448 35.8801 427.321 37.3185 423.755 35.8659C423.533 35.7747 420.903 34.5157 419.258 34.9401C419.052 34.9937 419.014 35.3802 418.749 35.3831C416.972 35.3948 415.838 34.9551 413.913 34.8851C411.985 34.8148 409.661 34.7711 407.501 34.3891C406.196 34.1593 404.589 33.2444 403.987 32.9959C402.258 32.2809 400.282 32.891 399.238 32.1455C398.203 31.3978 400.474 30.7172 397.625 29.9757C397.399 30.9646 397.035 31.9641 396.739 32.9504C390.348 32.153 384.131 31.0661 377.716 30.2651C376.921 30.1664 377.659 30.8113 376.811 30.7198C373.203 30.322 370.14 29.5165 366.326 29.0563C365.305 28.9323 364.14 28.8352 363.026 28.7285C362.411 28.6553 361.953 28.6176 361.245 28.4828C360.978 28.4344 360.494 28.337 359.883 28.0857C359.622 27.9675 359.32 27.8275 358.891 27.5063C358.784 27.4246 358.668 27.3296 358.544 27.2137C358.482 27.1558 358.418 27.0926 358.352 27.023C358.28 26.9439 358.245 26.9161 358.072 26.6964C357.498 26.0468 356.829 24.2894 357.353 22.7611C357.464 22.3968 357.616 22.073 357.78 21.7997C357.941 21.5272 358.136 21.2859 358.201 21.2098C358.389 20.9873 358.57 20.8145 358.737 20.6729C359.072 20.3916 359.347 20.229 359.578 20.1041C359.81 19.9811 360.001 19.8998 360.17 19.8336C360.305 19.7811 360.361 19.7601 360.449 19.7289C360.771 19.6157 361.036 19.545 361.291 19.483C361.465 19.4369 361.636 19.3964 361.809 19.3588C362.185 19.2802 362.445 19.2292 362.733 19.1787C363.371 19.074 363.795 19.0096 364.378 18.9484C366.381 19.9658 370.905 19.4456 374.167 19.4856C375.307 19.4981 375.29 19.8071 376.068 19.8923C379.147 20.2055 377.71 19.2131 378.529 19.0372C382.169 18.2865 382.452 20.5921 386.741 20.4605C386.941 20.4549 389.678 19.1759 390.071 19.092C392.434 18.5495 390.464 19.5135 391.967 19.577C394.743 19.692 396.646 19.9497 399.864 19.5226C400.848 19.3955 403.01 18.5821 404.893 19.1325C405.131 19.2048 405.01 19.6145 405.201 19.634C408.683 19.9505 408.787 18.668 410.75 18.1861C412.766 17.7028 415.836 18.5019 416.492 18.7376C418.174 19.3487 415.227 19.0542 415.147 19.1205C414.118 19.917 416.382 19.7238 418.106 19.739C418.383 20.9852 420.788 20.8393 419.883 19.7497C419.778 19.6309 418.447 19.7866 418.106 19.739C419.556 18.4675 422.23 18.2313 425.171 19.2865C426.558 19.78 425.314 20.4513 429.433 20.0826C431.319 19.9139 430.576 19.0762 432.225 18.7825C433.593 18.5371 435.136 18.464 436.752 18.4543C439.472 18.4406 442.421 18.6165 444.883 18.4333C446.308 18.3276 444.897 17.9139 445.872 17.8252C448.461 17.5877 450.73 17.8433 453.324 17.5449C453.557 17.5173 452.964 17.0491 453.765 17.0067C459.888 16.6716 465.192 16.7325 471.579 16.4169C474.665 16.2647 480.164 15.7027 483.349 15.5845C488.891 15.378 495.731 15.7123 500.449 15.2627C503.524 14.9717 502.82 14.517 504.121 14.1031C506.63 13.3017 511.208 14.1988 511.828 14.3424C511.847 14.3474 509.201 14.6236 510.632 14.7918C511.487 15.2702 511.798 14.3465 511.828 14.3424C512.235 14.4358 517.536 14.2245 518.585 14.0641C519.153 13.9772 518.804 13.5293 519.101 13.4928C526.158 12.6353 533.243 12.0621 540.436 11.8056C540.563 11.8067 540.407 12.3423 540.706 12.3382C544.88 12.295 547.513 11.4746 550.895 10.8624C554.321 10.247 557.015 10.1874 559.124 10.9419C561.684 10.6495 565.456 10.7805 567.58 10.8697C569.752 10.9556 569.969 9.91654 570.156 9.88281C575.962 8.81398 579.39 9.14595 585.477 8.77411C588.325 8.60307 594.117 8.00344 597.182 7.6447C599.694 7.35318 601.128 7.47648 603.432 7.13318C603.737 7.08744 603.389 6.66035 603.482 6.63517C605.955 5.88485 604.832 7.09206 605.367 7.24672C606.832 7.65923 607.891 7.92027 609.59 7.784C610.223 7.73304 610.938 7.6321 611.775 7.47055C612.493 7.33053 614.576 5.54251 615.905 5.32823C617.615 5.05402 617.073 5.67954 618.895 5.37097C619.05 5.34495 618.989 4.99621 620.104 4.90614C622.808 4.68247 625.54 4.47902 628.281 4.21929C629.715 4.08144 631.098 3.93357 632.357 3.76563C633.114 3.66172 633.601 3.59098 634.292 3.46519C634.607 3.40645 634.799 3.36835 635.086 3.30009C635.204 3.27143 635.292 3.24705 635.337 3.23294C635.378 3.22264 635.41 3.19703 635.181 3.29864C635.119 3.32721 635.047 3.36118 634.973 3.39765C634.881 3.44559 634.881 3.43293 634.676 3.5588C634.348 3.75792 634.011 4.04731 633.817 4.23144C633.408 4.63915 633.53 4.38563 633.545 4.24985C633.55 4.18787 633.527 4.15537 633.38 4.2891C633.244 4.44371 632.914 4.68042 632.502 5.76392C632.311 6.30252 632.133 7.14756 632.277 8.13918C632.391 9.00087 632.799 9.91742 633.287 10.5357C634.294 11.7929 635.194 12.0076 635.206 12.0418C635.66 12.2088 635.409 12.1151 635.277 12.1036C635.119 12.0763 634.777 12.0275 634.572 12.0036C634.09 11.9438 633.387 11.8744 632.839 11.827C631.511 11.7119 630.327 11.6298 628.978 11.5361C626.397 11.3574 623.635 11.1756 621.283 10.9612C620.044 10.8517 620.835 10.4863 620.568 10.3604C618.836 9.59499 616.668 10.5582 616.217 10.5654C606.982 10.8078 600.071 9.77291 590.682 10.0876C590.211 10.1069 586.266 11.157 584.465 10.1949C584.352 10.1309 582.691 9.14803 581.154 9.79143C581.057 9.8317 582.134 10.3392 580.249 10.2692C578.32 10.1989 575.311 10.5017 572.753 9.93428C571.958 9.75556 569.922 8.77625 567.506 9.52433C567.362 9.57651 563.633 11.2823 562.26 10.0769C562.035 9.87853 562.296 8.61399 559.29 9.24313C558.749 9.36544 559.73 9.65412 558.302 9.82122C556.111 10.0789 553.141 9.72203 550.287 10.2705C550.158 10.2957 549.92 10.3714 549.607 10.4582C548.769 10.7062 547.356 11.0448 546.149 10.5558C545.893 10.4524 546.382 10.0322 545.518 9.98063C541.364 9.73323 537.025 9.99712 532.84 9.68867C531.342 9.58022 532.113 8.89993 530.542 8.71103C528.924 8.522 525.875 8.33545 524.255 8.64249C522.636 8.94965 524.405 10.044 521.971 10.1236C511.332 10.4693 500.953 9.80884 490.314 9.69999C488.762 9.68384 490.052 10.0752 487.757 10.0795C479.176 10.0961 464.523 10.4514 457.152 9.62249C451.197 8.95817 458.696 8.45483 454.14 8.18414C451.91 8.05506 449.613 9.32087 449.078 9.36073C443.974 9.76557 440.297 9.2056 435.714 9.37924C434.763 9.41529 435.697 9.92801 434.886 9.95303C432.118 10.0431 429.192 9.8155 426.518 9.85898C425.319 9.87967 425.54 10.2714 424.434 10.2419C421.82 10.1757 419.514 10.0127 416.954 9.6475C416.72 9.61423 418.293 9.12547 416.35 9.10894C413.209 9.08359 409.267 8.725 405.681 9.10304C404.61 9.21676 404.571 10.1124 402.264 9.49649C401.78 9.36788 402.398 8.2917 399.707 9.2241C399.261 9.37901 394.711 10.638 392.519 9.83314C391.937 9.6213 390.448 8.74332 389.159 8.88346C388.984 8.90578 389.685 9.38583 388.617 9.43428C384.858 9.59665 380.866 9.55149 377.02 9.70854C375.988 9.75144 377.526 10.2467 375.988 10.2947C371.764 10.4276 366.441 10.3105 362.313 10.1627C360.787 10.1072 361.841 9.69281 361.729 9.64815C359.943 8.92172 358.888 9.90903 358.295 9.96766C354.608 10.319 351.786 9.86216 348.389 9.99198C347.451 10.0266 348.117 10.4949 347.93 10.5372C345.995 10.9507 347.436 10.1039 346.209 10.0136C342.775 9.75787 338.943 9.80444 335.467 9.87277C334.19 9.89857 335.626 10.4398 334.48 10.4567C327.697 10.5668 320.66 10.5329 314.032 10.2507C312.786 10.1966 313.569 9.77501 313.309 9.67993C311.517 9.0146 308.898 9.93615 308.296 10.0249C305.557 10.4303 304.492 10.0625 302.062 10.1388C290.221 10.5179 275.621 10.3193 264.426 10.2069C249.845 10.0628 238.58 9.70676 224.665 9.86744C223.782 9.87714 224.675 10.4314 223.914 10.447C214.153 10.6218 204.452 10.4461 194.579 10.653C193.776 10.669 194.936 11.1925 193.647 11.236C191.031 11.3286 187.621 11.3159 184.921 11.1601C183.606 11.085 185.367 10.6226 184.044 10.5564C180.941 10.4012 177.785 10.379 174.536 10.4801C173.18 10.5242 175.228 11.0549 173.467 11.07C161.699 11.183 149.814 11.3403 137.868 10.7102C137.035 10.667 136.295 9.57188 134.546 9.79322C134.416 10.0991 134.426 10.458 134.37 10.7845C129.349 10.8671 123.94 10.9037 118.982 10.9128C106.84 10.9373 94.7783 10.824 82.6321 10.8848C81.8774 10.8888 83.1843 11.4603 81.7271 11.471C73.5748 11.5317 65.5204 11.768 57.1558 11.2801C56.3213 11.2327 56.7922 10.2023 54.3138 10.3852C53.8411 10.4186 50.1744 10.598 49.2594 10.832C49.1263 10.8672 49.8268 11.337 48.5985 11.366C41.7071 11.5234 34.3824 11.5164 27.5622 11.3514C26.4672 11.3239 27.6487 10.792 26.8312 10.7689C21.1461 10.6095 15.1281 11.1254 9.78304 10.8902C6.22027 10.7487 7.50692 9.80501 5.57017 9.06225C5.28726 8.94978 3.15764 9.13322 2.98505 8.66265C2.51821 7.4422 3.45058 5.92961 2.8444 4.641C2.6711 4.33939 -0.39391 5.16013 1.32017 4.16611C1.43242 4.07974 3.80714 3.55076 4.33536 3.28616C4.71948 3.0891 3.94493 2.63684 4.76601 2.3595C5.51585 2.09022 6.48165 2.4581 7.71393 2.14608C9.00415 1.83187 8.42945 1.26869 10.9552 1.09818ZM577.277 11.2443C579.283 11.5867 579.449 9.77485 577.341 10.3619C577.241 10.3923 577.174 11.2278 577.277 11.2443ZM384.339 29.7085C381.844 28.5963 379.94 29.522 381.694 30.3642C383.398 31.1981 385.116 30.0478 384.339 29.7085ZM411.123 32.3189C408.179 31.3528 407.411 33.8259 410.703 33.6862C410.894 33.6788 411.294 32.375 411.123 32.3189ZM14.3417 8.41608C14.3275 8.4046 13.9271 8.40532 13.543 8.4121C13.1081 8.42048 12.6971 8.43482 12.6784 8.44729C12.2657 8.74691 12.8421 8.88042 13.486 8.86796C14.0715 8.85732 14.6864 8.70183 14.3417 8.41608ZM437.716 34.6628C436.819 34.2181 434.057 34.3135 435.178 34.8677C436.094 35.3152 438.836 35.2165 437.716 34.6628ZM594.797 5.50282C594.768 5.4756 593.601 5.435 593.62 5.5865C593.697 6.07438 595.316 5.96009 594.797 5.50282ZM482.814 39.4405C476.152 38.6876 472.324 36.1584 479.558 37.147C480.871 37.3243 476.672 37.5255 478.306 37.8834C481.33 38.5238 483.553 37.4912 486.485 38.3482C487.105 38.5536 483.187 39.5039 482.802 39.4423C482.806 39.4417 482.81 39.4411 482.814 39.4405ZM578.572 13.3096C578.616 13.3303 580.215 13.2335 580.25 13.2072C581.073 12.5746 577.852 12.7691 578.572 13.3096ZM527.665 3.89241C527.586 3.84146 523.94 3.78202 523.813 3.82831C521.907 4.75364 529.284 4.87651 527.665 3.89241ZM471.659 21.3542C469.964 22.0144 467.876 22.1863 466.46 21.5355C468.185 21.4887 469.934 21.4066 471.659 21.3542Z" fill="white"/>
</g>
</svg>
