<svg width="302" height="16" viewBox="0 0 302 16" fill="none" xmlns="http://www.w3.org/2000/svg">
<g style="mix-blend-mode:overlay">
<path d="M5.58614 0.558476C8.378 0.418797 11.9319 0.417453 14.7083 0.453885C15.5632 0.465546 15.1239 0.577739 15.7126 0.59081C16.9103 0.615834 17.9316 0.551132 19.1109 0.586398C19.4791 0.598897 19.022 0.772158 19.4096 0.781421C21.624 0.830098 23.6394 0.76681 25.8641 0.781603C36.0885 0.852865 46.1224 0.857337 56.5074 0.87154C57.1385 0.872601 57.7781 0.873678 58.4261 0.874798C62.1158 0.880414 66.4947 1.01135 70.2237 0.927452C70.6645 0.91748 70.4011 0.771298 70.4849 0.758761C71.8044 0.566694 71.3674 0.866282 72.2361 0.901854C75.5625 1.04281 79.3651 1.03995 82.6248 0.969585C84.026 0.939169 82.6216 0.652172 84.0313 0.810719C84.1268 0.821432 83.7811 0.979375 84.1556 0.994538C85.0033 1.02861 86.6299 0.994086 87.3007 1.00383C88.5922 1.0234 88.8074 1.02098 90.0415 1.01795C91.6837 1.01536 93.6578 1.08566 95.4614 1.04349C95.8464 1.03403 95.3358 0.875461 95.9502 0.845879C96.5725 0.816304 98.1529 0.824129 98.6989 0.859989C99.2403 0.895877 99.0104 1.02283 99.1064 1.05139C99.8942 1.29253 101.765 0.947956 102.008 0.938755C106.358 0.781059 110.125 0.961017 114.218 0.947444C117.358 0.936634 120.647 0.863074 123.63 0.863073C127.139 0.863835 130.159 0.942371 133.573 0.918333C133.934 0.915979 133.51 0.728442 133.952 0.725188C138.659 0.690769 143.316 0.699875 147.987 0.816636C148.456 0.828513 147.852 0.995526 148.32 1.0173C151.192 1.14686 155.727 1.46436 157.43 0.739803C159.373 0.764057 161.732 0.788645 163.47 0.930856C164.59 1.02239 163.502 1.2048 164.878 1.12533C165.188 1.10762 164.784 0.950308 165.249 0.935704C167.211 0.874361 169.355 0.922118 171.291 0.837391C171.685 0.819785 171.577 0.678355 171.689 0.652679C172.623 0.444686 174.194 0.783674 174.534 0.807981C177.138 0.989097 179.011 0.913743 181.443 0.915174C182.006 0.915595 181.341 0.726224 181.882 0.719801C184.686 0.689043 187.577 0.702216 190.327 0.784023C190.937 0.802682 190.376 0.965226 190.668 0.982434C191.951 1.05635 192.235 0.750092 193.461 0.815187C193.719 0.82852 193.573 0.967341 193.621 0.982535C194.365 1.22105 195.014 0.881734 195.205 0.87411C197.632 0.770091 199.149 1.12285 201.49 1.07157C201.771 1.06508 201.138 0.889895 201.927 0.882394C207.163 0.831419 212.637 0.878878 217.852 1.02082C218.653 1.04266 218.081 1.17432 218.132 1.19058C218.953 1.44478 219.481 1.10475 219.74 1.09204C221.808 1.00063 223.765 1.28717 225.153 0.882935C233.913 1.03011 242.598 0.815555 251.322 1.20539C251.433 1.20995 251.233 1.37689 251.455 1.38525C254.123 1.48786 253.574 1.22574 255.337 0.913498C255.793 0.835143 257.15 1.22493 257.266 1.25362C257.7 1.35922 257.249 1.60672 257.394 1.62742C258.545 1.78411 258.415 1.02562 259.812 0.974249C259.87 0.97226 259.93 0.971352 259.993 0.971621C260.045 0.973228 259.825 1.124 259.965 1.13971C260.401 1.18902 260.83 1.13068 261.248 1.18488C262.203 1.3103 262.544 1.71249 263.957 1.48673C264.147 1.45752 263.824 0.987949 265.321 1.01833C265.935 1.03076 268.42 1.03782 269.157 1.07327C269.89 1.10845 269.385 1.25578 269.438 1.26265C271.392 1.47537 270.646 1.5529 271.602 1.85487C272.545 2.15586 272.286 1.45292 272.667 1.37761C273.079 1.30269 274.516 1.47892 274.854 1.53911C275.197 1.59927 274.768 1.6913 275.073 1.72632C277.079 1.95566 275.933 1.38605 276.623 1.28112C278.296 1.03353 279.379 1.56478 280.923 1.63366C281.32 1.6521 280.998 1.52987 281.35 1.52299C282.707 1.49717 283.586 1.67068 285.142 1.54489C285.367 1.52386 286.704 1.23188 287.51 1.47558C287.624 1.51066 287.298 1.63446 287.875 1.67367C288.739 1.73228 290.331 1.79211 291.302 1.77175C292.015 1.75652 291.213 1.52373 292.091 1.6114C292.474 1.6506 291.763 1.75762 292.477 1.82091C293.213 1.88375 295.087 1.93442 295.803 1.95852C296.483 1.9799 296.116 1.804 296.172 1.79517C296.566 1.74636 297.868 1.72823 298.036 1.73936C298.747 1.77607 299.426 1.81755 300.175 1.8976C300.261 1.90711 300.343 1.91677 300.42 1.9266C300.522 1.93941 300.626 1.9537 300.717 1.96782C300.81 1.9824 300.886 1.99555 300.974 2.01307C301.098 2.03783 301.202 2.06325 301.3 2.09752C301.321 2.10978 301.466 2.13656 301.616 2.28605C301.69 2.3651 301.802 2.52258 301.755 2.76495C301.702 2.98171 301.585 3.06022 301.516 3.11208C301.431 3.16816 301.403 3.17562 301.377 3.18815C301.35 3.20012 301.323 3.21069 301.296 3.22057C301.241 3.24027 301.184 3.25737 301.123 3.2738C300.932 3.32395 300.758 3.35514 300.564 3.38746C299.186 3.59639 297.789 3.68875 296.441 3.78886C293.711 3.98024 291.02 4.12609 288.254 4.34424C287.89 4.37289 287.52 4.40312 287.142 4.43511C286.675 4.47442 286.998 4.62314 286.927 4.6309C285.33 4.81268 286.563 4.27286 285.445 4.19696C285.635 4.5313 284.953 4.5152 283.85 4.62717C283.315 4.68153 283.616 4.79591 283.568 4.81288C282.784 5.06942 282.191 4.84454 282.054 4.79961C281.519 4.6363 280.955 4.90754 280.582 4.79909C280.21 4.69148 281.03 4.44322 279.953 4.51534C279.664 4.65828 280.472 4.93101 279.67 5.03536C276.613 5.43312 270.837 5.53132 268.363 5.64962C265.904 5.76834 265.102 5.8371 263.657 5.87537C261.057 5.9428 262.021 6.12853 260.41 6.32977C258.803 6.53013 259.553 5.89532 259.314 5.78131C259.079 5.66711 258.837 5.81172 258.548 5.75777C258.259 5.70379 258.87 5.58324 258.2 5.59418C257.531 5.60516 255.726 5.93074 255.493 6.07651C255.007 6.38512 255.845 6.63602 254.079 6.6276C253.977 6.62692 254.297 6.45378 253.908 6.45904C250.816 6.50598 247.607 6.66658 244.522 6.71694C244.097 6.72365 244.467 6.53155 244.22 6.53349C241.647 6.55228 242.579 6.79745 241.187 7.19135C241.482 6.74463 240.69 6.52017 238.741 6.61256C237.568 6.66776 237.779 6.84614 237.028 7.01526C236.802 7.06621 235.967 6.97651 235.821 7.07213C235.339 7.38492 236.135 7.67231 234.118 7.63787C234.03 7.63586 234.303 7.46432 233.998 7.46899C232.027 7.49789 231.802 7.81168 229.675 7.9446C228.003 8.04902 225.035 7.9938 223.124 8.0435C223.145 7.55727 221.355 7.74307 220.638 8.10675C219.411 8.14303 218.065 8.21539 216.88 8.21484C216.472 8.21481 216.734 8.06414 216.682 8.05095C215.873 7.84387 215.35 8.18913 215.084 8.21187C212.196 8.44401 209.854 8.27911 207.094 8.60818C207.024 8.61668 206.927 8.7984 206.6 8.81309C206.472 8.81877 206.31 8.80029 206.103 8.73882C206.055 8.72331 206.967 8.54189 205.661 8.57014C204.373 8.59796 201.918 8.48723 200.121 8.68885C199.704 8.7372 198.575 9.03906 197.704 8.84566C197.587 8.81938 197.712 8.71978 197.543 8.66995C196.984 8.51159 196.686 8.85912 196.037 8.58415C195.398 8.30889 194.047 8.12187 192.224 8.35666C192.163 8.36363 191.754 8.64156 191.175 8.64799C190.255 8.65809 188.96 8.62441 188.018 8.64159C187.571 8.64986 187.86 8.81276 187.782 8.81711C184.695 8.96135 182.551 8.83974 179.244 8.8234C178.645 8.82006 176.924 9.07469 175.752 8.91856C174.457 8.75381 175.772 7.87966 172.809 8.17951C172.416 8.22611 171.915 8.39577 171.403 8.61157C171.282 8.66612 171.124 8.72589 170.989 8.80587C170.927 8.83643 170.873 8.86098 170.802 8.93471C170.799 8.9394 170.728 9.01207 170.716 9.09755C170.699 9.1877 170.736 9.27785 170.773 9.32109C170.851 9.40552 170.849 9.38249 170.884 9.4033C171.007 9.45188 171.072 9.44601 171.151 9.45361C171.346 9.47314 171.435 9.45867 171.624 9.47069C171.764 9.47187 171.915 9.47758 172.094 9.49294C172.582 9.5263 173.196 9.63663 173.757 9.86988C177.89 10.265 181.652 10.9138 185.802 11.1405C185.99 11.1507 186.607 10.9192 187.039 10.9658C187.686 11.0361 188.033 11.2068 188.49 11.2605C190.424 11.4904 192.213 11.5446 194.076 11.7392C194.787 11.813 194.523 11.9296 195.369 12.0171C196.216 12.1045 196.795 11.9725 197.933 12.1685C198.792 12.317 199.624 12.7748 200.768 12.9246C200.844 12.5561 201.636 12.637 203.047 12.667C203.319 12.6727 203.041 12.5166 203.17 12.5126C203.699 12.4935 204.16 12.6439 204.665 12.6167C204.787 12.6102 204.805 12.4835 204.905 12.471C205.752 12.3593 207.106 12.7704 207.332 12.8409C208.225 13.1124 208.651 12.9841 209.344 13.1216C210.033 13.2586 208.986 13.2583 209.793 13.3764C211.461 13.6206 213.617 13.7926 215.32 13.9498C215.994 14.0113 215.549 13.8007 215.646 13.8055C215.75 13.8115 215.853 13.8187 215.955 13.8268C217.265 13.9303 218.523 14.1738 219.264 13.9238C220.17 14.8848 220.127 13.9148 222.108 14.2647C222.271 14.2932 222.423 14.7232 221.823 14.7319C221.199 14.7384 220.306 14.5297 219.448 14.5493C219.252 14.5545 218.058 14.8394 217.915 14.8504C216.664 14.9245 216.566 14.293 216.499 14.2529C216.343 14.1571 216.149 14.0968 215.935 14.0607C215.225 13.9382 214.274 14.1131 213.994 14.1107C212.302 14.0931 210.866 13.8769 209.461 13.8456C208.523 13.8226 208.414 14.2208 207.685 14.1425C205.286 13.8842 204.5 13.2436 202.19 13.5255C201.696 13.5854 202.137 14.0721 200.43 13.5642C200.323 13.5323 199.059 13.0947 198.296 13.2266C198.199 13.2433 198.19 13.3724 198.066 13.3717C197.231 13.3647 196.688 13.2105 195.781 13.175C194.874 13.1395 193.781 13.1102 192.757 12.9687C192.138 12.8835 191.363 12.5671 191.075 12.48C190.245 12.2296 189.33 12.421 188.823 12.1648C188.32 11.9077 189.371 11.6945 188.016 11.4278C187.933 11.7575 187.783 12.0896 187.667 12.418C184.647 12.1094 181.703 11.704 178.673 11.3892C178.299 11.3505 178.659 11.5719 178.261 11.5352C176.566 11.3761 175.091 11.0813 173.317 10.8952C172.856 10.846 172.356 10.8054 171.88 10.7624C171.596 10.7321 171.371 10.7125 171.07 10.663C171.01 10.6539 170.915 10.6358 170.818 10.6125C170.7 10.579 170.699 10.5989 170.423 10.48C170.362 10.4517 170.294 10.4167 170.209 10.3609C170.167 10.3327 170.12 10.2991 170.069 10.2555C170.036 10.2262 170.041 10.2345 169.965 10.1591C169.898 10.0889 169.822 9.99847 169.749 9.87361C169.601 9.63651 169.493 9.1902 169.598 8.80573C169.68 8.43485 169.964 8.13902 170.004 8.10629C170.156 7.96231 170.275 7.89587 170.37 7.84526C170.773 7.66138 170.77 7.69652 170.9 7.6557C171.633 7.49495 172.018 7.46675 172.547 7.41772C173.455 7.7538 175.584 7.57392 177.124 7.58399C177.672 7.5868 177.641 7.69019 178.016 7.71766C179.482 7.81876 178.784 7.48974 179.179 7.43018C180.894 7.17646 181.026 7.94479 183.046 7.8968C183.139 7.89477 184.449 7.46545 184.622 7.43727C185.743 7.25393 184.807 7.57736 185.518 7.59694C186.823 7.63241 187.72 7.71628 189.246 7.56998C189.699 7.52662 190.74 7.25251 191.617 7.43372C191.73 7.45751 191.67 7.59425 191.761 7.60048C193.409 7.70126 193.454 7.27365 194.388 7.11007C195.347 6.94595 196.786 7.20772 197.097 7.28517C197.889 7.48618 196.497 7.39279 196.458 7.41501C195.966 7.6822 197.044 7.61411 197.85 7.61652C197.974 8.0316 199.111 7.97888 198.69 7.61709C198.641 7.57768 198.011 7.63184 197.85 7.61652C198.545 7.1901 199.803 7.107 201.189 7.45333C201.843 7.61522 201.243 7.84176 203.194 7.71077C204.085 7.65081 203.744 7.37282 204.518 7.27173C205.135 7.19126 205.825 7.16232 206.548 7.15386C207.865 7.13924 209.297 7.19628 210.495 7.12738C211.169 7.08874 210.506 6.95413 210.967 6.92222C212.186 6.83699 213.262 6.91643 214.484 6.81046C214.594 6.80068 214.318 6.64601 214.697 6.62981C217.587 6.50248 220.091 6.50833 223.105 6.38489C224.563 6.32534 227.162 6.1217 228.665 6.07263C231.28 5.98706 234.502 6.07705 236.731 5.91173C238.185 5.80465 237.858 5.65517 238.476 5.5128C239.668 5.23717 241.816 5.52122 242.107 5.56705C242.115 5.56866 240.865 5.6697 241.537 5.72102C241.935 5.87783 242.092 5.56851 242.107 5.56705C242.297 5.59687 244.799 5.50834 245.295 5.45117C245.564 5.42019 245.405 5.27191 245.546 5.2587C248.883 4.94818 252.23 4.73157 255.624 4.61946C255.684 4.61934 255.604 4.79872 255.745 4.79626C257.711 4.76652 258.964 4.48273 260.566 4.26549C262.189 4.04707 263.461 4.01663 264.444 4.26039C265.653 4.15292 267.429 4.18179 268.431 4.20292C269.452 4.22297 269.569 3.87515 269.658 3.86314C272.411 3.48267 274.018 3.57965 276.894 3.42958C278.243 3.36012 280.974 3.13521 282.429 3.00127C283.612 2.893 284.294 2.9271 285.38 2.80217C285.525 2.7855 285.368 2.6444 285.412 2.63557C286.587 2.37362 286.038 2.78216 286.289 2.83119C286.948 2.95567 287.421 3.0367 288.16 2.99745C288.485 2.97983 288.859 2.94098 289.306 2.87543C289.642 2.82554 290.665 2.21698 291.288 2.13901C292.112 2.03759 291.835 2.25027 292.699 2.13763C292.775 2.12789 292.739 2.01269 293.283 1.97525C294.547 1.88696 295.863 1.80139 297.162 1.6954C297.84 1.63939 298.49 1.58032 299.119 1.50827C299.459 1.46859 299.743 1.43255 300.054 1.38297C300.184 1.36229 300.345 1.33356 300.458 1.30849C300.512 1.29625 300.55 1.28698 300.582 1.27729C300.592 1.27432 300.588 1.27452 300.56 1.28549C300.509 1.32631 300.574 1.2102 300.153 1.55901C299.941 1.74056 299.632 2.27651 299.698 2.80341C299.753 3.27927 299.927 3.49141 300.033 3.63657C300.258 3.90288 300.334 3.92542 300.378 3.97114C300.456 4.03935 300.401 4.03335 300.374 4.04517C300.337 4.04937 300.378 4.10969 300.501 4.18418C300.588 4.24092 300.627 4.25913 300.591 4.25244C298.715 4.00041 295.777 3.94051 293.49 3.77579C292.896 3.73695 293.272 3.61659 293.144 3.57411C292.355 3.31684 291.296 3.63382 291.087 3.63571C286.75 3.70433 283.462 3.3532 279.036 3.45157C278.817 3.45769 276.931 3.80491 276.103 3.48341C276.049 3.462 275.261 3.13336 274.534 3.34698C274.488 3.36035 274.999 3.53012 274.106 3.50573C273.186 3.48117 271.788 3.58078 270.57 3.39038C270.197 3.33046 269.215 3.00297 268.097 3.25149C268.029 3.26881 266.267 3.83591 265.616 3.4336C265.513 3.36742 265.619 2.94589 264.221 3.15465C263.965 3.19524 264.429 3.29181 263.754 3.34701C262.718 3.43213 261.314 3.31223 259.965 3.49422C259.928 3.49927 259.872 3.51048 259.801 3.52493C259.443 3.60266 258.669 3.77411 258.018 3.5882C257.897 3.55366 258.128 3.41374 257.719 3.39631C255.751 3.31272 253.718 3.39974 251.736 3.29605C251.028 3.25959 251.392 3.03298 250.649 2.9697C249.881 2.90636 248.455 2.84366 247.686 2.94571C246.922 3.04783 247.758 3.41292 246.609 3.43902C241.594 3.55254 236.689 3.33123 231.675 3.29415C230.942 3.28865 231.551 3.4192 230.468 3.42046C226.412 3.42534 219.511 3.5433 216.028 3.26695C213.217 3.04546 216.757 2.87773 214.606 2.78747C213.557 2.74443 212.473 3.16637 212.22 3.17966C209.812 3.31462 208.073 3.12802 205.916 3.186C205.467 3.19804 205.907 3.36892 205.525 3.37728C204.219 3.40736 202.838 3.33159 201.576 3.34618C201.01 3.35312 201.114 3.48369 200.593 3.47388C199.363 3.45193 198.272 3.39769 197.065 3.27608C196.955 3.265 197.697 3.10201 196.78 3.09659C195.297 3.0883 193.44 2.96898 191.747 3.09521C191.242 3.13319 191.223 3.43172 190.135 3.22658C189.906 3.18374 190.198 2.82497 188.929 3.13596C188.717 3.18762 186.573 3.60761 185.538 3.33949C185.263 3.26893 184.561 2.97638 183.953 3.0232C183.87 3.03065 184.201 3.19061 183.697 3.20685C181.923 3.26128 180.041 3.24657 178.226 3.29928C177.739 3.31368 178.465 3.47861 177.739 3.49478C175.746 3.53946 173.234 3.50096 171.288 3.45214C170.568 3.43382 171.065 3.29558 171.013 3.2807C170.17 3.03875 169.672 3.36797 169.392 3.38758C167.653 3.50512 166.321 3.35316 164.719 3.39685C164.277 3.40849 164.591 3.56452 164.503 3.57864C163.589 3.71671 164.269 3.43427 163.691 3.40432C162.071 3.31951 160.263 3.33552 158.623 3.35876C158.021 3.36753 158.698 3.54776 158.158 3.55353C154.958 3.59116 151.637 3.58085 148.511 3.48781C147.923 3.46996 148.293 3.32932 148.17 3.29766C147.325 3.07616 146.09 3.38375 145.805 3.41345C144.513 3.54901 144.01 3.42657 142.864 3.4524C137.279 3.58067 130.39 3.5171 125.11 3.48183C118.23 3.43665 112.918 3.32036 106.353 3.3771C105.937 3.38054 106.357 3.5651 105.998 3.57045C101.392 3.63098 96.8159 3.57477 92.1596 3.64628C91.7806 3.6518 92.3274 3.82603 91.7195 3.84083C90.4865 3.87238 88.8751 3.86907 87.6025 3.81783C86.9824 3.79317 87.8132 3.63857 87.1893 3.61683C85.7268 3.56593 84.2355 3.55942 82.7037 3.59403C82.0641 3.60909 83.0294 3.78542 82.1988 3.79095C76.6498 3.83191 71.0401 3.88791 65.4054 3.68181C65.0123 3.66769 64.6647 3.30287 63.8397 3.37723C63.7782 3.47925 63.7821 3.59888 63.7556 3.70773C61.3966 3.73682 58.8524 3.75092 56.5229 3.75579C50.7855 3.76856 45.0878 3.73543 39.3462 3.76142C38.9903 3.76311 39.6057 3.95302 38.9184 3.95728C35.074 3.98136 31.2715 4.06428 27.326 3.90672C26.9322 3.89143 27.1575 3.54763 25.9866 3.61016C25.7634 3.62158 24.0341 3.68376 23.6006 3.7624C23.5377 3.77422 23.8671 3.93037 23.2875 3.94086C20.0351 3.99806 16.5784 4.00141 13.3587 3.9535C12.8416 3.9455 13.4015 3.76695 13.0156 3.76009C10.3321 3.71316 7.48849 3.89228 4.95554 3.82688C3.26416 3.78955 3.88427 3.47117 2.97464 3.2305C2.8439 3.19336 1.82115 3.26709 1.75081 3.11169C1.56454 2.70561 2.03191 2.19349 1.77974 1.76567C1.71268 1.66357 0.286231 1.96197 1.1029 1.61495C1.15796 1.58414 2.23463 1.3963 2.4848 1.3064C2.66405 1.23917 2.31585 1.09088 2.69618 0.995371C3.04264 0.902968 3.48582 1.02266 4.06281 0.915377C4.66706 0.807392 4.40373 0.620605 5.58614 0.558476ZM272.992 4.28883C273.937 4.39466 274.041 3.78893 273.036 3.9939C272.988 4.00447 272.944 4.28374 272.992 4.28883ZM181.766 11.2492C180.572 10.8599 179.692 11.1556 180.543 11.4508C181.361 11.7419 182.138 11.3682 181.766 11.2492ZM194.413 12.2985C193.007 11.9566 192.702 12.7797 194.246 12.7536C194.336 12.7524 194.495 12.3184 194.413 12.2985ZM7.12977 2.99238C7.12323 2.98857 6.93375 2.98952 6.75291 2.99247C6.5474 2.99606 6.35314 3.00164 6.34424 3.00583C6.14718 3.10655 6.41864 3.14992 6.72299 3.14458C6.99915 3.13997 7.29094 3.08706 7.12977 2.99238ZM206.968 13.2464C206.536 13.0921 205.24 13.1074 205.779 13.2997C206.218 13.4548 207.507 13.4385 206.968 13.2464ZM280.959 1.92609C280.945 1.91699 280.392 1.90257 280.402 1.95309C280.44 2.11578 281.207 2.07893 280.959 1.92609ZM228.278 15.1087C225.131 14.821 223.277 13.9519 226.701 14.324C227.323 14.3907 225.351 14.4343 226.127 14.5633C227.566 14.7936 228.578 14.4642 229.999 14.7596C230.283 14.8321 228.453 15.1327 228.272 15.1093C228.274 15.1091 228.276 15.1089 228.278 15.1087ZM273.575 4.97303C273.595 4.97975 274.349 4.94087 274.366 4.93195C274.762 4.71731 273.244 4.79549 273.575 4.97303ZM249.294 1.36296C249.257 1.34596 247.534 1.32549 247.474 1.34091C246.575 1.64901 250.059 1.69128 249.294 1.36296ZM223.094 8.03183C222.287 8.25694 221.304 8.32002 220.642 8.10684C221.456 8.08642 222.279 8.05427 223.094 8.03183Z" fill="white"/>
</g>
</svg>
