<svg width="600" height="600" viewBox="0 0 600 600" fill="none" xmlns="http://www.w3.org/2000/svg">
<path d="M57.8794 196.612C58.0511 196.649 58.3961 197.718 58.7159 197.606C60.2415 197.068 61.686 195.189 64.012 194.828C66.7758 194.401 70.3097 195.951 72.9511 196.669C79.2214 198.371 101.593 205.999 106.603 209.846C108.575 211.359 110.345 215.464 113.401 215.021L110.162 219.166L111.536 221.926L113.697 221.335L113.408 219.035L115.908 220.671C111.887 221.942 111.893 225.418 110.679 228.682L108.171 223L107.145 228.923L106.258 225.968C105.313 226.404 104.606 226.97 103.518 227.063C94.1927 227.925 79.5751 219.553 70.3493 216.328C64.6501 214.334 57.3273 214.989 55.6286 207.104C54.8606 203.526 56.67 200.051 55.7642 196.925C56.4924 196.674 57.0474 196.436 57.875 196.597L57.8794 196.612Z" fill="white"/>
<path d="M108.208 278.017C108.198 279.482 104.906 280.855 103.518 279.842C101.615 278.453 99.4973 271.046 98.8731 268.43C96.6592 268.709 94.3944 268.898 92.1576 268.806C88.9045 268.673 80.8432 267.268 78.6071 267.553C76.999 267.762 74.7099 269.799 73.5918 269.419C73.1438 269.264 72.5232 267.249 71.0426 266.705C66.8586 265.157 59.3936 269.622 56.4604 261.103L52.8225 262.098L52.1614 259.894C53.2706 259.441 55.475 260.282 55.7315 258.405C56.0683 255.886 52.7481 260.216 53.0997 257.612C53.3112 256.014 56.0639 253.461 55.6114 250.802L63.7073 246.003C64.9779 248.257 66.4379 246.349 68.4094 246.36C72.5056 246.384 98.165 248.985 100.259 250.341C102.353 251.697 102.812 255.078 105.685 253.485L105.836 258.541L110.244 263.356C106.652 262.763 107.013 263.482 105.905 265.975C105.685 266.475 104.78 266.537 104.798 266.596C105.55 269.102 108.234 276.177 108.225 278.02L108.208 278.017Z" fill="white"/>
<path d="M135.429 187.333L134.398 187.996L135.802 190.612L131.979 188.553L133.927 192.371L132.335 192.447L133.728 194.439C131.865 195.295 131.887 195.048 130.716 193.744L127.095 196.429L125.905 192.89C123.2 194.127 116.668 192.785 114.507 191.127C112.83 189.847 104.998 181.28 103.308 179.208C100.449 175.703 94.4097 166.148 94.3802 161.819C94.3714 160.263 96.5337 159.277 94.4561 157.225C98.1868 157.263 100.085 151.809 104.963 153.206L104.881 151.728C105.831 150.423 111.378 155.523 112.36 156.682C114.536 159.251 115.765 162.891 117.59 165.332C120.199 168.807 128.754 175.101 129.913 176.874C131.651 179.534 132.205 184.461 135.429 187.333Z" fill="white"/>
<path d="M189.874 108.59C190.001 108.64 190.107 109.877 190.829 109.845C193.366 109.735 197.184 108.268 200.281 108.175C203.648 108.072 207.937 109.863 210.686 109.52C213.249 109.201 209.8 107.022 210.175 106.452L213.123 105.567C213.129 108.184 214.566 108.235 212.133 110.275C216.251 111.578 218.999 114.095 222.24 116.786C222.981 117.407 224.125 117.257 224.837 117.943C230.013 122.905 233.825 133.98 231.326 141.02C230.535 143.258 228.706 147.871 227.779 149.924C225.791 154.329 220.647 158.418 221.911 164.37L223.274 163.559C224.601 167.555 219.859 167.306 222.017 172.17C223.303 175.062 224.941 174.98 226.192 176.204C229.376 179.345 232.587 182.471 235.906 185.476C249.308 197.586 265.004 210.679 279.857 222.033C286.955 227.455 297.212 232.644 303.362 238.607C304.278 239.489 304.803 241.372 305.611 242.487C308.985 241.202 306.941 238.433 304.797 237.124C310.288 236.12 309.001 232.232 310.354 228.814C313.124 221.821 315.98 215.221 316.944 207.509C317.862 200.18 317.103 192.881 318.179 185.946C320.174 173.154 323.437 160.599 325.378 147.79C323.045 146.039 322.847 151.055 320.02 148.594L321.268 147.424C315.03 146.339 308.623 142.63 303.8 138.55C298.735 134.253 298.279 129.064 293.764 124.321L295.974 114.042L293.006 112.129C295.629 110.563 298.773 111.162 299.86 108.065C300.707 105.666 298.54 104.87 303.469 104.162C302.942 102.698 301.332 104.884 301.351 102.404L302.635 101.89L301.631 100.713C302.997 99.9099 304.073 101.595 305.383 101.194C306.081 100.977 310.357 97.0754 312.106 96.1571C317.08 93.54 330.48 89.5765 336.08 88.9649C339.837 88.5529 346.398 90.4485 349.97 91.8591C372.606 100.798 372.769 120.993 357.616 137.347L359.41 137.998L354.995 139.323L355.874 142.28L351.87 142.268C353.453 144.171 353.304 145.55 356.134 145.825L354.839 147.025C356.45 148.646 357.575 152.02 360.227 151.434C360.622 151.733 359.272 152.829 359.74 154.014C359.918 154.475 364.707 161.601 365.226 162.233C366.073 163.264 367.598 162.67 367.822 163.254C369.468 167.564 369.122 168.551 372.204 173.338C380.277 185.866 391.046 198.172 399.923 210.226C402.472 213.687 405.44 217.849 407.027 221.719L422.14 196.556C424.121 196.09 430.952 186.755 431.164 185.559C431.375 184.362 429.804 183.195 429.638 182L427.326 182.3C430.57 179.671 428.062 178.994 427.595 176.555C427.376 175.424 427.811 174.249 427.577 173.283C426.989 170.841 424.203 169.588 427.292 167.432L428.818 168.581L428.171 166.373L425.242 167.212L423.381 163.794C426.294 162.606 424.217 167.037 427.674 164.875L427.561 161.447L424.7 160.184L426.832 159.473C426.386 152.818 424.4 159.319 420.949 155.687L424.843 155.306L423.593 152.475L425.46 154.711L427.039 154.647C426.454 151.223 429.206 149.362 430.385 146.839C430.718 146.128 429.889 145.052 430.353 144.43C431.058 143.488 434.3 144.307 432.63 140.96C435.546 140.961 438.161 136.208 438.592 133.628C443.469 133.74 448.594 130.282 452.911 129.598C456.392 129.043 462.212 130.021 465.919 130.114L466.55 128.334L467.213 130.545C467.634 130.796 473.43 126.069 473.787 130.983L474.998 129.824C475.61 132.131 476.643 132.656 478.865 131.894C478.321 134.796 480.448 135.725 482.696 133.926L480.931 136.078C482.648 137.675 483.147 140.064 485.712 138.652L484.906 141.296L487.628 139.684C488.793 141.664 486.497 142.152 485.135 142.03L486.462 146.452L486.42 143.717L487.896 143.226C489.206 146.497 485.593 146.986 487.588 150.075L489.765 149.486L488.628 151.024L491.606 152.942L489.183 152.874C490.965 156.83 487.641 159.409 492.564 161.492C492.353 161.78 488.463 161.211 488.305 163.363C487.902 168.955 498.625 183.733 489.581 184.888C486.192 185.318 482.135 176.75 483.429 173.888C481.517 174.18 481.307 176.212 481.257 177.705L479.316 177.636C479.32 180.326 477.603 178.728 475.981 180.042C475.25 180.631 472.508 185.093 472.569 185.966L470.084 184.326L469.008 187.46L470.706 187.738L469.409 191.365C476.752 218.869 482.937 246.448 486.411 274.686C489.664 281.246 489.381 288.36 491.743 295.058L493.887 294.463C495.075 296.227 493.181 295.968 493.044 296.901C492.173 302.81 498.411 305.26 498.019 310.889L500.736 309.262L498.382 306.771L500.001 305.474C501.49 307.036 503.197 315.135 502.885 316.908C502.53 318.91 500.093 318.123 502.571 320.761L499.412 320.914C501.82 322.754 499.686 324.399 500.32 326.538C501.268 329.78 507.904 339.1 504.325 341.789C503.722 342.243 501.9 342.918 501.236 342.739C499.69 342.327 495.768 327.164 492.827 324.512C491.219 323.059 488.278 324.664 486.735 320.62L483.564 321.644C484.065 318.521 481.83 319.103 480.419 317.719C476.16 313.566 472.531 309.69 466.829 307.392L465.434 309.409L465.259 306.361C461.986 306.218 458.202 302.975 455.154 302.644C452.495 302.349 451.214 304.774 449.814 302.865L451.438 301.558C445.593 300.307 437.831 295.751 433.08 300.639L433.895 298C431.737 297.877 431.063 298.496 429.701 300.062C429.194 296.551 423.551 297.368 421.447 299.325L419.972 296.899L416.138 297.696C416.856 302.525 421.998 304.831 421.369 309.775C434.625 307.959 450.143 307.763 462.773 312.642C467.806 314.586 472.303 317.792 476.987 320.178C477.433 320.406 478.55 319.766 478.87 319.975C479.269 320.233 483.627 326.806 484.243 327.842C485.019 329.144 488.792 336.311 488.856 337.143C488.942 338.177 487.922 339.704 487.674 340.887C487.175 343.294 486.567 346.088 485.76 348.78C485.495 349.663 483.997 351.124 484.079 352.522L486.942 354.354C482.641 354.744 482.929 356.988 481.349 359.245C480.315 360.728 472.227 370.826 472.787 371.437L474.553 373.334L472.65 372.21C469.607 372.913 463.747 380.263 460.786 382.605C448.47 392.349 433.561 398.348 420.065 405.176C412.581 408.963 405.137 412.587 398.138 417.16L402.265 417.529L401.959 419.211C404.713 418.056 405.43 417.849 407.439 419.993L411.773 417.087C409.366 419.777 411.594 420.161 410.368 423.115L414.05 422.027L412.908 423.574L414.93 424.96C412.718 425.808 411.68 428.08 410.027 429.451C409.236 430.106 407.36 429.986 407.01 431.015C406.847 431.49 407.216 435.878 407.421 436.644C407.5 436.933 409.308 441.219 409.673 442.089C411.189 445.748 416.048 450.379 413.204 454.687C405.599 460.856 404.322 441.148 400.796 437.989C399.773 437.364 396.804 438.447 396.92 439.69C398.994 442.803 399.386 446.357 400.704 449.68C402.231 453.512 405.422 458.339 406.882 462.295C408.342 466.251 411.979 476.953 412.389 480.758C412.704 483.628 408.64 484.542 407.529 482.899L390.822 441.029C388.671 442.453 385.991 443.964 383.574 444.85C368.549 450.329 347.435 453.748 331.388 454.456C327.527 454.627 319.387 453.389 316.829 453.94C315.57 454.213 315.425 455.927 314.943 455.767C312.178 452.307 305.532 453.61 301.314 452.939C296.893 452.233 292.267 451.275 287.867 450.37C283.014 449.375 277.641 446.248 273.175 447.828L272.396 445.234C269.849 443.677 272.28 450.442 272.565 451.233C276.652 462.418 284.994 475.042 287.328 486.946C288.105 490.93 288.114 496.422 283.014 496.667C282.5 494.58 281.547 492.552 281.183 490.428C278.908 477.302 272.255 466.508 267.256 454.183C266.382 452.019 266.309 448.321 265.057 445.645C264.716 444.911 262.503 441.149 262.243 441.058C261.903 440.943 256.368 443.809 257.735 439.181C255.361 440.263 254.781 440.18 253.382 438.085C260.098 436.319 248.884 426.172 246.173 423.346C235.728 412.469 223.2 403.808 212.101 393.666C203.412 385.725 192.779 372.157 183.656 366.17C182.556 365.448 180.367 365.221 180.237 365.107C180.071 364.956 180.455 363.531 179.527 362.5C178.345 361.184 175.71 358.962 174.022 358.263C174.282 362.716 184.614 375.707 181.065 379.061C176.571 383.31 173.486 371.551 172.006 368.307C171.445 367.078 170.167 366.112 169.597 364.748C167.829 360.515 167.065 355.53 165.458 351.193C162.102 352.778 160.856 355.345 157.118 356.892C154.774 357.86 150.026 359.357 147.575 359.731C145.548 360.042 143.673 358.186 141.059 360.906L141.35 359.277C135.629 360.318 132.402 355.373 127.361 354.661C125.775 354.437 125.013 355.405 124.929 355.31C124.525 354.877 124.864 353.112 124.344 352.184C123.617 350.883 120.358 345.804 119.102 346.599L120.283 344.991L117.313 340.717L114.83 343.068L114.316 340.017C114.423 341.367 110.85 343.997 110.186 343.658C108.153 342.637 112.131 341.757 110.889 340.644L108.563 340.924C108.191 340.007 111.949 338.526 112.403 338.406C113.625 338.088 114.458 338.376 115.579 338.819L115.488 337.256L117.918 337.322L117.107 331.942L115.793 335.541C115.361 334.129 113.438 333.476 112.778 332.453C111.017 329.744 114.872 327.198 114.699 326.647C114.626 326.404 112.9 326.086 112.744 324.976C112.622 324.113 114.064 321.905 112.849 320.374L114.252 322.371C116.185 320.996 117.601 321.969 117.605 318.875C117.607 316.633 113.098 314.748 116.313 313.31C120.851 315.555 122.477 309.701 117.282 310.915L117.274 307.005C118.804 309.108 121.892 309.467 122.36 311.881L122.205 308.715L124.408 308.054L124.563 311.22L126.779 310.572L125.894 307.624C127.04 306.919 126.67 308.925 127.533 308.803C129.152 308.575 131.371 305.796 133.059 305.105C134.398 304.559 139.352 302.864 140.785 302.418C142.763 301.808 147.957 303.913 147.135 300.529L148.513 300.035C148.772 300.632 149.208 301.361 149.817 301.596C153.758 303.113 164.189 305.51 166.565 308.26C167.908 309.817 170.175 318.448 170.948 321.051C171.59 323.189 171.097 326.662 173.137 327.785C174.696 328.643 185.181 329.265 188.215 329.978C197.813 332.224 216.537 337.733 227.336 337.875C228.166 337.883 228.897 337.937 229.671 337.544C228.195 334.284 228.277 330.757 227.494 327.369C217.032 282.267 204.818 236.864 195.065 191.823C194.92 191.152 195.828 190.108 195.569 189.11C195.245 187.897 190.829 185.173 194.127 184.304L193.841 183.217C191.32 183.516 192.074 181.048 191.3 180.477C190.816 180.124 181.471 180.277 181.006 180.063C180.585 179.868 180.324 178.46 179.4 177.926C177.087 176.587 173.182 176.184 170.027 173.484C167.639 171.444 165.709 167.099 163.281 167.064L163.066 166.35C165.68 165.959 163.01 162.012 163.499 159.785L161.219 162.871L160.114 159.186L163.987 157.261C162.013 151.94 165.639 149.351 166.685 145.1C166.871 144.354 165.922 143.441 166.102 142.889C166.477 141.757 169.112 141.81 166.241 139.257L167.056 137.928C168.396 138.86 169.981 136.03 170.026 135.109C170.116 133.427 169.057 132.95 168.898 132.154C168.842 131.857 170.828 130.579 169.543 129.052L171.81 129.971C172.097 128.704 174.466 125.326 174.636 124.528C174.994 122.83 173.505 121.774 174.556 120.326L175.363 121.675L176.822 121.237C175.924 119.45 178.784 119.476 179.69 117.838L177.799 113.73L182.879 114.624L181.997 111.683C184.403 110.624 182.899 113.188 185.715 112.215C188.532 111.241 188.64 108.172 189.851 108.596L189.874 108.59ZM209.054 141.677C209.877 140.056 211.734 137.169 211.848 135.432C212.164 130.863 202.9 127.777 199.258 128.332C195.617 128.886 191.064 133.819 194.399 136.875L191.902 135.222C190.593 138.836 186.775 142.873 189.976 146.235C185.462 144.496 184.545 159.247 185.184 159.714C189.261 160.427 186.902 158.669 189.389 157.666L189.542 160.825C192.42 159.761 196.748 159.274 199.059 157.151C202.207 154.254 206.915 145.901 209.061 141.674L209.054 141.677ZM342.892 114.724C342.323 103.456 328.85 113.145 322.149 113.782C319.075 123.299 329.384 128.529 336.968 123.844C337.578 123.468 336.989 122.36 337.065 122.265C338.517 120.359 338.302 122.721 338.447 122.991C339.259 124.49 341.624 123.379 342.696 122.801L342.729 120.019C346.052 120.332 349.042 116.8 347.798 113.751C346.554 110.702 341.151 110.796 343.012 112.768C343.916 113.718 345.984 112.391 345.992 114.694L342.89 114.717L342.892 114.724ZM220.129 203.873L219.232 200.937L217.866 204.311L218.583 206.755L220.677 205.725C218.377 207.138 219.11 214.293 219.844 216.475C220.376 218.058 222.414 219.07 222.325 219.281C222.283 219.382 221.246 219.46 221.123 219.826C220.718 221.048 227.373 240.927 228.285 244.477C233.446 264.546 236.457 285.293 242.465 305.188C242.861 306.507 243.178 308.501 243.774 309.551C244.165 310.237 246.042 308.943 245.834 311.062L244.159 310.753C244.057 314.029 245.142 317.11 246.171 320.191C247.842 325.225 246.516 322.546 246.582 324.213C246.614 324.934 249.479 333.442 249.896 333.919C250.644 334.779 256.627 338.736 257.484 336.479L257.408 338.904L259.626 338.238L256.904 339.874C258.278 341.671 260.295 341.54 262.255 340.655L263.613 343.469L264.412 340.827L266.989 344.063L263.092 344.436L264.623 349.592L266.303 349.088C268.912 349.269 265.729 351.269 265.359 352.151C265.13 352.702 264.724 356.463 264.243 356.76C263.689 357.11 262.458 356.516 261.682 356.845C261.191 357.057 261.712 358.258 261.197 358.605C260.534 359.045 256.512 359.561 255.418 360.387C257.012 364.335 254.244 360.892 253.34 360.77C251.841 360.568 244.798 360.657 244.063 361.392L244.152 362.947C232.683 356.716 218.72 357.089 206.118 354.363L204.801 356.292C204.401 354.934 203.524 353.132 201.7 354.017L203.607 355.044C204.099 358.559 209.36 363.697 212.197 366.083C213.355 367.053 214.843 366.791 215.08 366.993C215.275 367.16 214.911 368.49 215.443 369.166C217.831 372.225 224.395 378.04 227.63 381.03C238.93 391.465 251.514 400.584 262.64 411.24C263.37 411.021 265.562 406.789 266.116 406.197C288.855 382.112 315.594 356.152 344.455 339.757C354.539 334.033 368.743 325.065 379.429 320.895C384.304 318.991 413.087 311.464 414.259 309.988C415.355 308.607 410.107 299.039 409.185 298.617C407.115 297.663 402.271 298.627 400.014 296.138L400.749 299.927L395.082 298.414L397.801 300.811C395.821 302.056 393.339 301.065 392.118 299.246C391.508 298.337 391.934 297.052 391.826 297.013C391.4 296.851 389.402 298.358 389.168 296.187L388.584 299.568L384.137 298.082C386.357 296.886 386.849 298.337 387.895 295.533C387.985 295.297 387.33 294.907 387.362 294.504C387.376 294.283 388.527 293.969 388.411 293.53C388.104 292.345 385.714 291.046 387.581 289.425C388.702 288.446 389.116 290.523 389.48 290.478C393.03 290.048 389.964 283.818 393.453 287.656C394.724 286.535 394.886 283.434 395.042 283.259C395.211 283.071 396.671 283.549 397.511 283.08C398.541 282.498 398.956 280.775 400.805 279.867C403.108 278.734 410.492 276.222 413.14 275.436C413.457 275.34 413.687 276.484 414.928 276.522C424.141 276.787 434.466 275.4 443.677 277.023C447.849 277.756 452.028 281.298 455.444 278.707C454.39 282.477 462.302 283.598 464.775 282.31C466.323 279.596 466.299 274.374 466.044 271.06C465.203 260.09 462.104 249.251 459.947 238.66C459.062 234.346 457.535 217.766 454.525 215.447C453.489 214.641 450.774 216.894 450.07 215.241L454.48 213.902L453.391 210.22L450.431 211.092L451.569 209.554L446.257 206.737C444.319 209.809 441.192 209.269 438.764 210.6C438.289 210.863 438.592 211.953 438.485 212.025C434.81 214.316 434.747 214.054 432.048 218.205C427.317 225.489 423.777 237.067 419.193 243.423C418.479 244.416 417.765 245.144 416.521 245.389C416.741 247.299 419.759 246.836 417.996 248.939L414.979 248.254C415.287 250.274 415.499 250.122 417.217 250.386C416.072 253.316 416.601 257.784 411.96 256.132C409.017 255.079 410.023 252.327 409.355 251.25C408.969 250.635 399.752 244.571 397.942 242.584C392.704 236.797 388.291 227.549 383.554 221.105C373.272 207.103 362.315 193.633 352.429 179.263C350.465 176.414 348.219 172.139 345.986 168.929C345.846 168.73 343.103 168.315 343.465 165.291L340.129 175.538L342.082 175.354C344.49 177.274 340.318 177.08 339.83 178.423C338.85 181.103 337.672 187.192 337.372 190.126C336.994 193.822 336.315 197.127 338.004 200.669L336.321 200.362C336.851 206.172 337.217 212.103 337.254 217.932C337.34 231.017 336.365 246.484 336.12 260.504C336.095 261.708 335.374 263.105 335.445 263.903C335.622 265.915 337.712 266.348 338.08 267.708C338.192 268.108 336.053 268.501 337.017 269.625L341.468 271.102C339.103 271.707 340.155 274.411 340.586 276.194L337.721 274.652L339.488 280.54L335.665 278.482C337.431 283.511 340.197 288.128 342.391 292.948C343.406 295.182 343.587 297.98 344.643 300.242C345.994 303.138 353.846 312.953 350.952 316.078C348.637 317.6 347.671 318.316 346.229 315.704C344.577 312.713 343.796 308.746 341.628 305.83C339.902 303.504 336.282 302.605 335.422 301.289C332.679 297.099 333.398 288.304 325.637 287.901L325.199 286.441L328.973 285.711C327.539 284.679 325.823 285.547 324.255 285.303C321.43 284.857 319.235 283.885 316.827 283.008C312.014 281.263 309.512 279.805 305.469 276.559C304.091 275.446 302.329 272.544 301.132 271.956C300.127 271.47 298.766 272.047 298.438 271.84C297.925 271.52 297.686 269.358 296.903 268.38C291.95 262.154 282.146 256.146 276.066 250.821C272.765 247.931 266.28 239.489 262.989 237.809C262.097 237.354 260.589 237.951 260.047 237.535C257.506 235.574 250.529 225.947 246.858 222.437C241.201 217.025 232.751 212.314 227.912 207.724C226.059 205.967 225.143 200.289 223.175 206.181L221.616 203.901L222.902 202.648L221.201 202.331L220.072 203.898L220.129 203.873ZM457.659 149.494C452.41 150.635 444.342 155.152 447.6 161.219C453.045 162.365 458.083 161.031 463.403 160.608L460.02 160.016C458.4 156.919 460.885 157.435 461.292 156.919C462.889 154.906 462.099 154.09 466.277 154.122L463.805 151.265L464.955 149.715L459.002 149.822L457.588 151.909L457.666 149.492L457.659 149.494ZM151.282 322.549C150.995 322.314 144.55 323.002 143.85 323.132C142.968 323.3 142.118 323.707 141.257 323.942L142.449 325.183L140.148 325.198C136.623 331.229 136.365 341.002 146.16 339.59C148.74 339.218 149.775 336.377 150.276 334.082C150.422 333.419 149.348 332.624 149.488 332.1C149.628 331.576 151.77 330.066 151.458 328.489L149.163 328.792C147.153 327.314 153.903 324.671 151.29 322.547L151.282 322.549ZM441.963 330.115C441.535 328.741 440.741 328.586 439.501 328.363C414.1 323.893 371.377 346.245 349.408 359.078C329.667 370.607 314.435 386.833 298.1 402.514C296.834 403.729 277.662 421.603 280.181 422.823C283.123 421.596 283.849 424.069 285.833 425.57C281.664 429.721 291.09 430.854 294.336 431.607C294.994 431.763 295.698 431.086 296.156 431.166C296.979 431.312 300.097 433.405 302.229 432.935C304.151 432.511 306.943 427.785 302.365 429.825L301.795 425.168C306.553 425.283 304.034 422.777 304.141 421.444C304.15 421.288 305.884 420.158 304.655 418.687L306.703 418.9L306.426 416.557L308.345 417.572L309.809 417.149L309.737 415.572C312.466 417.492 315.393 415.144 318.289 414.621C330.872 412.356 341.767 411.345 354.248 408.147C363.551 405.766 372.734 403.011 381.904 400.349L381.094 398.985C382.456 397.982 382.291 400.032 383.117 400.001C386.7 399.866 395.213 395.681 398.601 393.693C399.181 393.35 398.717 392.18 399.054 392.095C402.497 391.255 410.212 389.687 412.72 387.095C417.756 381.897 431.382 379.464 438.449 373.754C441.139 371.581 445.987 368.809 449.495 365.989C456.052 360.721 461.209 353.944 465.5 346.744L463.49 342.937L466.541 342.769C466.774 339.236 468.771 338.822 465.512 336.313C460.755 332.639 448.554 327.8 442.601 328.333L441.977 330.111L441.963 330.115ZM374.794 424.983C370.456 422.412 365.608 426.092 361.425 427.226C357.243 428.36 352.465 429.761 347.987 430.607C340.498 432.018 331.962 432.056 324.401 433.682C326.322 435.347 330.832 434.982 333.371 434.799C337.663 434.483 364.947 430.853 366.405 429.098L366.103 426.779L367.578 428.803C370.554 427.556 376.88 427.892 377.386 424.197L378.661 425.502L394.368 418.516L394.777 416.586L375.248 422.638L374.797 424.99L374.794 424.983Z" fill="white"/>
<path d="M485.514 378.914L482.559 379.801L487.568 383.11L484.187 382.526C487.959 394.537 474.479 399.303 467.143 405.481C467.892 408.783 468.805 412.148 469.898 415.363C470.991 418.577 476.959 427.037 469.893 426.86C466.899 426.786 466.094 420.649 465.161 418.423C463.962 415.553 461.854 413.157 461.694 409.357L456.769 411.63C460.337 421.757 462.441 432.975 466.137 442.993C466.881 445.019 468.45 449.015 469.373 450.754C471.728 455.229 479.523 460.916 480.354 464.274C481.03 467.011 478.602 470.912 476.044 471.76C468.325 474.333 469.027 465.052 467.332 460.283C466.062 456.72 463.182 453.254 461.822 449.87C458.091 440.594 456.709 427.819 451.822 419.267C451.503 418.712 450.275 419.225 450.195 418.879C449.965 417.896 450.567 416.559 449.771 414.95C448.858 413.111 446.053 413.454 444.453 412.111L444.153 413.679L439.15 414.489L440.289 412.958L436.87 409.566L441.618 409.354C442.953 408.046 440.335 407.996 440.166 406.737C440.137 406.505 440.617 402.401 440.709 402.068C442.607 395.032 448.542 394.384 453.431 390.997C457.327 388.294 461.752 384.966 465.571 382.086C466.906 381.074 467.583 379.233 469.052 378.398C473.072 376.108 476.764 377.972 480.608 375.976L479.542 375.075C478.538 370.122 485.913 378.184 485.512 378.907L485.514 378.914Z" fill="white"/>
<path d="M321.458 317.512C324.615 318.798 326.241 323.893 329.814 323.191C326.357 325.513 327.93 327.009 327.007 330.331C325.606 335.354 321.433 336.735 318.278 339.874C315.123 343.014 312.286 347.054 309.174 350.39C307.058 352.655 302.097 354.971 299.159 354.31C298.669 354.2 295.143 350.695 294.411 350.505C293.358 350.234 291.731 351.373 290.537 350.229L292.624 349.209C289.775 345.147 291.173 342.23 293.43 338.211C295.404 334.695 309.046 320.641 312.348 318.742C314.692 317.397 318.909 316.485 321.443 317.516L321.458 317.512Z" fill="white"/>
<path d="M306.298 299.808C306.542 300.032 307.351 299.676 307.632 300.235C308.882 302.744 307.714 308.677 306.128 311.049L289.3 327.015L290.753 335.206C283.663 338.699 285.295 331.124 282.687 328.107C281.198 326.384 278.476 327.297 277.777 326.575C276.146 324.887 275.29 318.581 274.11 316.332L280.396 307.401C288.915 300.773 295.284 289.736 306.296 299.8L306.298 299.808Z" fill="white"/>
<path d="M285.422 277.697C286.072 278.016 286.417 279.085 287.022 279.627C287.493 280.048 288.443 279.787 288.528 279.882C289.187 280.632 289.7 287.001 289.407 288.463C288.295 293.994 284.894 293.906 281.966 296.809C280.028 298.731 276.682 303.913 274.091 304.971C272.189 305.751 269.454 304.321 267.43 304.696C265.085 305.126 263.84 307.564 261.459 305.547C260.845 309.82 260.047 306.678 259.184 304.631L262.344 304.478L258.6 299.978L261.238 300.793C261.266 299.307 259.573 298.055 259.312 297.025C259.195 296.579 260.396 296.218 260.446 295.609C260.58 294.155 259.872 292.704 260.569 291.306C261.417 289.606 270.444 280.415 272.276 279.238C276.539 276.498 280.635 275.341 285.415 277.699L285.422 277.697Z" fill="white"/>
</svg>
