<svg width="600" height="600" viewBox="0 0 600 600" fill="none" xmlns="http://www.w3.org/2000/svg">
<g clip-path="url(#clip0_3021_69)">
<path d="M300.883 240.736C303.306 241.481 305.805 240.345 306.465 238.199C307.125 236.053 305.696 233.709 303.273 232.964C300.85 232.219 298.351 233.355 297.691 235.501C297.031 237.647 298.46 239.991 300.883 240.736Z" fill="white"/>
<path d="M200.649 300.727C202.582 303.897 196.35 308.021 193.649 305.607C189.801 302.161 197.006 296.184 200.649 300.727Z" fill="white"/>
<path d="M66.4618 323.757C67.253 326.161 62.9107 332.349 59.3174 328.669C55.2084 324.457 65.0456 319.467 66.4618 323.757Z" fill="white"/>
<path d="M318.071 230.754C319.925 231.324 321.836 230.455 322.341 228.814C322.846 227.172 321.753 225.379 319.899 224.809C318.046 224.239 316.134 225.108 315.63 226.75C315.125 228.391 316.218 230.184 318.071 230.754Z" fill="white"/>
<path d="M381.016 457.419C380.352 457.68 374.97 457.889 374.627 457.386C375.665 455.782 377.538 451.062 379.91 451.436C381.736 451.718 384.1 456.224 381.014 457.426L381.016 457.419Z" fill="white"/>
<path d="M262.266 183.015C264.09 183.576 265.972 182.721 266.469 181.105C266.966 179.489 265.89 177.724 264.066 177.163C262.241 176.602 260.359 177.457 259.862 179.073C259.365 180.689 260.442 182.454 262.266 183.015Z" fill="white"/>
<path d="M343.463 234.251C345.288 234.812 347.17 233.957 347.666 232.341C348.163 230.725 347.087 228.96 345.263 228.399C343.439 227.838 341.557 228.693 341.06 230.309C340.563 231.925 341.639 233.69 343.463 234.251Z" fill="white"/>
<path d="M298.38 256.309C300.17 256.86 302.017 256.021 302.505 254.435C302.993 252.849 301.937 251.117 300.146 250.566C298.356 250.015 296.509 250.855 296.021 252.441C295.533 254.027 296.589 255.759 298.38 256.309Z" fill="white"/>
<path d="M371.59 465.458C371.836 466.211 373.625 466.431 372.16 468.488C368.849 467.402 361.413 464.802 367.341 462.321C371.785 460.468 370.809 463.082 371.59 465.458Z" fill="white"/>
<path d="M255.839 408.136L254.212 407.204C255.791 404.249 258.388 400.625 262.2 399.925L261.405 405.12L255.839 408.136Z" fill="white"/>
<path d="M222.585 425.911C224.293 426.437 226.056 425.636 226.521 424.122C226.986 422.609 225.979 420.956 224.27 420.431C222.562 419.905 220.799 420.706 220.334 422.22C219.868 423.733 220.876 425.386 222.585 425.911Z" fill="white"/>
<path d="M246.293 466.11C247.987 466.631 249.735 465.836 250.196 464.336C250.658 462.835 249.658 461.197 247.964 460.676C246.27 460.155 244.523 460.949 244.061 462.449C243.6 463.95 244.599 465.589 246.293 466.11Z" fill="white"/>
<path d="M229.526 400.137C231.123 401.941 227.948 407.04 224.593 404.076C220.734 400.67 227.406 397.731 229.526 400.137Z" fill="white"/>
<path d="M351.338 475.107C353.032 475.628 354.779 474.834 355.241 473.333C355.702 471.833 354.703 470.194 353.009 469.673C351.315 469.152 349.567 469.946 349.106 471.446C348.644 472.947 349.644 474.586 351.338 475.107Z" fill="white"/>
<path d="M362.013 382.481C363.673 382.991 365.386 382.213 365.838 380.743C366.29 379.272 365.311 377.666 363.651 377.155C361.991 376.645 360.278 377.423 359.826 378.894C359.374 380.364 360.353 381.97 362.013 382.481Z" fill="white"/>
<path d="M331.166 491.398C332.817 491.905 334.52 491.132 334.969 489.67C335.419 488.208 334.445 486.611 332.795 486.103C331.144 485.596 329.441 486.369 328.992 487.831C328.542 489.293 329.516 490.89 331.166 491.398Z" fill="white"/>
<path d="M421.679 421.961C423.324 422.467 425.022 421.695 425.47 420.238C425.919 418.78 424.948 417.188 423.302 416.682C421.656 416.175 419.959 416.947 419.511 418.405C419.062 419.862 420.033 421.454 421.679 421.961Z" fill="white"/>
<path d="M191.542 319.735C193.159 320.232 194.827 319.474 195.267 318.042C195.707 316.61 194.754 315.046 193.137 314.549C191.52 314.052 189.852 314.809 189.412 316.241C188.972 317.674 189.925 319.238 191.542 319.735Z" fill="white"/>
<path d="M49.8785 336.408C53.7678 336.545 52.5312 342.214 49.828 342.17C44.3136 342.093 46.9282 336.297 49.8785 336.408Z" fill="white"/>
<path d="M394.965 468.605C392.693 470.363 388.069 465.586 391.391 463.337C394.447 461.27 397.854 466.367 394.965 468.605Z" fill="white"/>
<path d="M65.4013 308.918C64.9927 310.402 64.7717 312.054 63.2778 312.992C57.9321 316.347 57.312 305.362 65.4013 308.918Z" fill="white"/>
<path d="M257.605 418.008C255.416 417.784 253.375 417.453 251.332 416.57C249.708 414.605 252.593 410.51 253.69 412.136C253.78 415.95 257.824 413.873 257.613 418.01C258.327 418.086 259.569 418.993 260.166 418.668L260.952 416.487C266.385 419.937 261.207 419.141 260.471 419.668C260 420.015 260.352 422.759 258.593 422.539C255.848 422.195 257.561 419.02 257.613 418.01L257.605 418.008Z" fill="white"/>
<path d="M210.333 294.996C210.38 293.629 210.043 292.61 211.387 291.66C217.29 287.519 218.988 298.42 210.333 294.996Z" fill="white"/>
<path d="M30.1682 342.241C31.2875 344.636 28.3877 348.404 25.6077 346.651C23.8666 344.692 25.3388 343.078 26.5981 341.533L30.177 342.244L30.1682 342.241Z" fill="white"/>
<path d="M373.958 123.43C374.582 125.011 370.148 126.333 368.714 125.147C369.649 123.756 367.404 116.966 371.049 119.078C371.779 119.506 371.867 122.981 373.958 123.43Z" fill="white"/>
<path d="M88.446 174.734C89.8746 175.174 91.3482 174.504 91.7373 173.239C92.1265 171.973 91.2839 170.591 89.8553 170.152C88.4267 169.713 86.9531 170.382 86.5639 171.648C86.1748 172.913 87.0174 174.295 88.446 174.734Z" fill="white"/>
<path d="M418.449 187.371C419.844 187.8 421.282 187.146 421.662 185.911C422.042 184.675 421.22 183.326 419.825 182.897C418.43 182.468 416.991 183.122 416.611 184.357C416.231 185.593 417.054 186.942 418.449 187.371Z" fill="white"/>
<path d="M340.447 249.658C331.091 251.593 324.737 257.002 314.636 257.394L316.606 261.398C313.796 263.787 307.981 260.88 307.717 265.247C307.403 270.234 322.447 282.333 326.519 287.322C355.218 322.481 374.885 365.232 406.625 398.776C415.478 408.124 413.047 405.123 424.924 410.589C437.385 416.327 447.117 423.505 453.387 433.508C453.967 432.424 456.649 431.902 457.601 433.118C459.226 435.194 454.271 434.678 454.483 435.896C457.568 438.03 458.218 448.118 458.76 448.683C458.903 448.828 462.359 448.231 462.837 450.411C463.001 452.435 459.799 450.68 459.211 451.753C457.719 454.471 460.226 456.081 462.838 458.037L459.383 458.287L458.571 462.299L461.304 463.063L459.531 465.052L462.177 465.908C464.036 464.209 464.85 464.612 467.732 465.041C467.754 467.335 464.827 466.977 463.491 467.811C462.84 468.213 462.854 469.768 461.52 470.408C459.411 471.428 454.531 469.106 454.77 472.907L458.203 473.107L458.326 476.026C453.565 477.815 449.059 476.412 448.557 481.935L452.361 484.477L449.925 486.676C448.012 488.13 443.533 484.312 442.961 484.534L443.414 489.317C442.501 491.408 440.221 490.775 437.925 490.992C434.135 491.343 435.737 490.633 433.729 490.414C424.857 489.439 430.067 495.837 426.295 496.778C422.114 497.33 419.303 495.22 415.461 493.87C413.755 496.175 418.516 495.834 418.815 497.951C419.49 502.734 409.665 501.924 409.449 496.257C393.742 500.272 390.041 510.173 386.828 521.953C385.474 526.891 383.866 531.548 385.574 536.937C386.685 540.456 391.219 546.154 390.282 549.238C389.257 552.608 384.572 552.362 382.893 554.769C380.314 558.466 383.585 568.156 373.958 565.899C362.253 563.155 371.844 555.497 372.115 549.124C372.279 545.159 369.317 536.868 367.426 532.72C366.985 531.754 367.96 531.367 365.342 530.994C350.917 543.232 361.497 564.202 354.16 578.831C352.408 582.317 347.807 585.189 342.289 583.187C339.969 572.044 339.534 561.599 340.663 550.796C341.529 542.488 342.987 533.21 344.791 525.131C347.547 512.813 353.643 499.284 355.436 486.856C355.891 483.7 354.88 479.093 352.309 476.126C351.166 474.808 348.843 473.822 348.239 473.001C347.488 471.974 348.139 470.2 347.633 469.748C347.127 469.296 337.494 465.495 334.86 464.032C326.781 459.565 323.941 455.108 315.4 451.227C314.186 450.676 313.525 450.269 313.06 449.228L319.288 444.382L317.703 441.794L321.396 441.226L316.696 438.967C318.227 436.049 317.08 435.392 315.904 432.353C319.057 431.06 322.553 431.745 325.678 433.901C334.932 433.29 319.334 429.018 318.711 427.573L319.975 423.005L329.943 424.8C328.914 420.518 323.801 420.479 321.995 416.399L324.607 415.534C319.747 404.982 310.922 394.973 304.744 384.821C294.206 367.49 267.19 314.464 247.388 304.451C241.805 301.632 243.87 303.801 240.93 304.668C233.571 306.819 236.799 307.345 233.617 309.188C232.747 309.692 230.232 308.867 228.258 309.718C226.094 310.653 225.26 313.252 223.653 314.512C196.235 336.089 166.25 357.623 140.172 381.519C124.889 395.518 109.121 408.885 99.6372 425.879C87.2825 448.013 46.722 437.886 32.6133 415.501C31.7525 414.143 30.4546 409.593 29.6165 409.953C28.7524 413.221 21.5318 409.204 26.8199 407.873C27.5449 407.689 28.8532 408.126 29.0068 408.046C29.4782 407.81 27.0611 400.797 27.3312 398.584C29.5991 379.464 48.2145 375.793 55.5352 363.048C57.7409 359.193 55.5728 355.756 60.1654 350.738C62.695 347.966 74.8114 341.974 75.2007 341.204C75.7363 340.149 72.0241 336.355 77.7111 335.901L81.0898 337.652C86.1587 334.975 86.0262 329.189 88.4689 326.128C92.115 321.556 111.722 308.065 118.097 303.273C137.455 288.723 156.421 276.628 178.506 264.534C185.135 260.905 190.923 256.5 197.97 253.262C203.671 247.424 186.273 240.234 180.955 235.523C167.748 223.819 154.934 214.346 141.693 203.098C131.742 194.649 119.505 179.982 106.542 174.046C104.094 172.929 103.302 174.092 101.619 173.693C96.8712 172.58 98.59 169.66 97.0637 167.607C95.7064 165.766 93.0517 166.161 92.0361 165.23C90.3824 163.705 87.6392 158.439 84.6367 156.609C82.2759 155.171 82.4095 159.16 80.5011 158.692C76.2676 157.661 80.0591 153.455 76.1589 151.875L79.1136 149.818C74.2016 149.392 73.5423 152.146 69.2646 147.636C64.7732 153.66 57.5797 144.636 66.4929 145.056L66.8381 143.933C66.7857 143.493 62.6842 139.097 62.0163 138.638C59.3983 136.816 62.1165 141.21 58.2819 141.285C56.3831 141.319 54.6104 140.639 52.8139 140.035L54.1208 136.32L59.6019 137.031C55.8218 132.124 62.817 131.038 63.9394 127.046L60.1368 124.385L63.6757 117.95C67.2388 116.775 72.132 120.999 72.8022 120.765L73.0936 116.347L78.996 115.841L80.0741 108.598C83.2146 108.454 83.06 111.245 83.3469 111.341C85.0755 111.898 87.6255 110.776 90.2982 111.658C92.534 112.396 93.6484 114.264 94.1413 114.415C94.9127 114.653 101.351 111.337 106.546 112.749C111.741 114.16 119.704 122.057 125.483 124.088C128.254 125.067 130.59 124.032 131.872 124.63C133.698 125.479 133.388 127.824 134.068 128.397C134.933 129.129 140.588 131.334 143.299 133.236C146.453 135.451 149.695 140.049 152.039 141.388C155.329 143.273 157.851 142.473 160.694 143.906C165.018 146.092 168.554 152.364 172.678 154.514C175.477 155.976 177.527 155.488 180.258 156.675C196.029 163.55 226.798 194.991 243.847 206.555C248.448 209.673 250.091 212.033 255.323 209.931L253.301 212.69C257.102 214.596 261.042 217.265 265.083 218.771C274.49 222.274 275.113 216.628 282.111 214.349C279.733 212.779 279.444 211.885 281.037 210.214L275.8 208.519L276.632 205.471L287.819 211.08L291.994 208.907C292.457 208.431 288.425 207.852 290.455 206.324C290.913 206.169 292.434 207.822 293.588 207.728C294.865 207.621 310.232 198.799 313.709 197.369C322.302 193.836 332.821 193.038 339.832 190.568C341.541 189.967 346.671 184.995 349.284 183.477C355.437 179.905 366.697 176.242 374.244 174.047C380.142 172.336 397.146 169.898 400.867 167.908C404.082 166.185 402.107 159.071 410.681 166.198C414.151 160.445 424.085 156.4 431.873 154.491C436.072 153.461 441.28 153.572 444.942 152.724C453.972 150.629 464.079 144.994 473.751 142.41C481.289 140.399 489.299 138.762 497.704 138.661L497.344 136.093C500.92 136.972 509.129 138.082 512.025 137.016C514.249 136.191 514.495 132.073 516.732 131.244C517.329 131.021 529.658 130.17 530.39 130.344C535.698 131.621 536.726 140.443 541.983 135.858L539.27 129.5L546.979 131.472L549.672 128.513C552.754 128.75 554.311 131.465 556.592 132.209C558.192 132.727 567.255 132.049 565.24 134.979L561.339 137.939C566.456 139.453 561.805 143.174 563.757 145.139C575.754 146.973 567.277 148.949 570.11 155.065C558.436 154.051 552.61 165.866 545.373 168.614C543.409 169.357 540.161 169.01 537.345 169.966C532.57 171.573 528.68 175.528 524.003 177.351C515.407 180.706 504.493 181.908 495.44 186.368C493.822 187.167 493.255 189.127 492.401 189.424C491.652 189.685 489.488 188.943 487.924 189.453C484.897 190.446 482.265 192.865 478.581 193.443L480.867 194.553C482.518 195.171 481.162 196.414 480.426 196.976C478.482 198.454 477.152 193.741 476.094 193.94L470.486 196.884L473.513 198.747C474.304 204.108 469.054 202.264 465.916 198.436C459.474 203.555 445.42 202.003 442.134 208.914C439.246 208.924 437.747 206.209 436.454 205.608C432.662 203.866 430.064 211.057 427.636 212.047L371.25 235.417C370.141 238.109 366.927 241.543 363.633 242.758C359.69 244.214 356.47 241.758 355.475 247.129C353.27 248.12 342.828 244.282 340.469 249.665C342.021 249.346 343.569 249.118 344.952 248.51C347.478 248.838 347.701 252.118 345.886 253.025C342.305 254.83 338.993 253.015 340.458 249.661L340.447 249.658ZM558.987 146.349C558.231 145.337 559.453 141.934 555.559 141.287C555.157 145.417 559.584 154.666 564.835 149.224C563.407 148.564 559.67 147.254 558.987 146.349ZM375.214 495.04C373.442 494.206 372.937 494.704 371.839 495.451C368.547 497.691 365.832 513.802 366.202 517.863C366.36 519.598 366.81 522.177 368.788 523.564C373.885 514.999 376.151 505.19 375.214 495.04Z" fill="white"/>
</g>
<defs>
<clipPath id="clip0_3021_69">
<rect width="600" height="600" fill="white"/>
</clipPath>
</defs>
</svg>
